<?xml version="1.0" encoding="UTF-8"?>
<svg width="512pt" height="512pt" version="1.1" viewBox="0 0 180.62 180.62" xml:space="preserve" xmlns="http://www.w3.org/2000/svg" xmlns:xlink="http://www.w3.org/1999/xlink"><defs><radialGradient id="radialGradient204" cx="120.67" cy="78.027" r="22.762" gradientTransform="matrix(3.2503 0 0 2.9074 -204.5 -79.377)" gradientUnits="userSpaceOnUse"><stop stop-color="#f1f2f3" offset="0"/><stop stop-color="#7c8c93" offset=".5"/><stop stop-color="#2b3134" offset="1"/></radialGradient><linearGradient id="linearGradient210" x1="143.83" x2="97.888" y1="57.56" y2="98.383" gradientTransform="matrix(3.2503 0 0 3.2503 -204.5 -106.13)" gradientUnits="userSpaceOnUse"><stop stop-color="#fff" offset="0"/><stop offset="1"/></linearGradient></defs><g transform="translate(-97.41 -57.166)"><path d="m218.01 95.311h34.1c3.3842 0 9.2121 5.8179 9.2121 9.4203v28.717c0 9.5432-9.2121 8.0215-10.552 9.5856 1.3395 1.4186 10.552 0 10.552 8.822v40.146c0 1.864-4.2553 7.6431-9.2121 7.6431h-34.1zm25.199 87.766v-31.221c0-2.2619-5.0475-2.5325-7.2022-2.5334v36.679c2.4746-.18417 7.2022-.1675 7.2022-2.9241zm0-49.629v-21.974c-.57152-3.0127-4.8319-2.4824-7.2014-2.4824v27.365c2.6891-.11348 7.2014.0944 7.2014-2.9086zm-129.47-38.137h33.41l-.115 13.557-15.292.1142v28.193h13.882v12.364h-13.882v50.106h-18.003zm41.874 98.858 31.234-58.55v-33.278c0-2.5133-3.1848-3.4399-5.267-3.3655-1.8773.06705-4.5203 1.7188-4.5203 3.3655v29.494l-20.679 11.604.41637-51.556c1.5586-5.3246 4.8474-8.539 10.195-9.9647 2.5518-.68032 26.521-.8625 30.189-.22947 6.5274 1.1264 10.597 4.8731 11.963 11.014.3769 1.6942.41902 4.4898.32779 21.752-.11474 21.718-.0361 20.618-1.867 26.11l-28.877 55.047h30.822v18.044h-53.938z" fill="url(#radialGradient204)" stroke="url(#linearGradient210)" stroke-linecap="square" stroke-width="3.2503" style="paint-order:markers stroke fill"/></g></svg>
