<?xml version="1.0" encoding="UTF-8" standalone="no"?>
<!-- Created with Inkscape (http://www.inkscape.org/) -->

<svg
   width="200mm"
   height="200mm"
   viewBox="0 0 200 200"
   version="1.1"
   id="svg1"
   xml:space="preserve"
   sodipodi:docname="io.github.fpiesche.f2bgl.svg"
   inkscape:version="1.3.2 (091e20ef0f, 2023-11-25)"
   xmlns:inkscape="http://www.inkscape.org/namespaces/inkscape"
   xmlns:sodipodi="http://sodipodi.sourceforge.net/DTD/sodipodi-0.dtd"
   xmlns:xlink="http://www.w3.org/1999/xlink"
   xmlns="http://www.w3.org/2000/svg"
   xmlns:svg="http://www.w3.org/2000/svg"><sodipodi:namedview
     id="namedview1"
     pagecolor="#ffffff"
     bordercolor="#000000"
     borderopacity="0.25"
     inkscape:showpageshadow="2"
     inkscape:pageopacity="0.0"
     inkscape:pagecheckerboard="0"
     inkscape:deskcolor="#d1d1d1"
     inkscape:document-units="mm"
     inkscape:zoom="0.5946522"
     inkscape:cx="304.3796"
     inkscape:cy="405.27892"
     inkscape:window-width="1366"
     inkscape:window-height="696"
     inkscape:window-x="0"
     inkscape:window-y="0"
     inkscape:window-maximized="1"
     inkscape:current-layer="layer1" /><defs
     id="defs1"><linearGradient
       id="linearGradient209"
       inkscape:collect="always"><stop
         style="stop-color:#ffffff;stop-opacity:1;"
         offset="0"
         id="stop209" /><stop
         style="stop-color:#000000;stop-opacity:1;"
         offset="1"
         id="stop210" /></linearGradient><linearGradient
       id="linearGradient203"
       inkscape:collect="always"><stop
         style="stop-color:#f1f2f3;stop-opacity:1;"
         offset="0"
         id="stop203" /><stop
         style="stop-color:#7c8c93;stop-opacity:1;"
         offset="0.5"
         id="stop205" /><stop
         style="stop-color:#2b3134;stop-opacity:1;"
         offset="1"
         id="stop204" /></linearGradient><radialGradient
       inkscape:collect="always"
       xlink:href="#linearGradient203"
       id="radialGradient204"
       cx="120.672"
       cy="78.02713"
       fx="120.672"
       fy="78.02713"
       r="22.762119"
       gradientTransform="matrix(3.5372066,0,0,3.1640206,-229.02788,-88.888328)"
       gradientUnits="userSpaceOnUse" /><linearGradient
       inkscape:collect="always"
       xlink:href="#linearGradient209"
       id="linearGradient210"
       x1="143.82812"
       y1="57.559978"
       x2="97.888283"
       y2="98.383034"
       gradientUnits="userSpaceOnUse"
       gradientTransform="matrix(3.5372066,0,0,3.5372066,-229.02788,-118.00697)" /></defs><g
     inkscape:label="Layer 1"
     inkscape:groupmode="layer"
     id="layer1"
     transform="translate(-97.409876,-57.166476)"><path
       id="path1-6"
       style="fill:url(#radialGradient204);stroke:url(#linearGradient210);stroke-width:3.53721;stroke-linecap:square;stroke-dasharray:none;paint-order:markers stroke fill"
       d="m 230.77989,157.99116 v -56.77145 l 17.87471,0.0785 c 19.88253,0.0874 18.89788,0.0106 22.44262,1.74211 3.30948,1.61605 5.56714,4.66625 6.3039,8.51685 0.51973,2.71651 0.48959,28.60235 -0.0361,31.16605 -1.04029,5.07146 -4.26767,8.36866 -9.47529,9.68037 -1.82145,0.45877 -2.38906,0.75134 -1.45772,0.75134 0.31411,0 1.31397,0.21187 2.22204,0.47048 5.08297,1.44849 8.03533,4.35918 9.26097,9.13024 0.37718,1.46822 0.41304,3.30849 0.41304,21.19335 0,21.53925 0.0439,20.82417 -1.46362,23.95099 -0.88087,1.82732 -3.33863,4.22211 -5.28232,5.14706 -3.34687,1.59273 -2.68864,1.5453 -22.69133,1.63454 l -18.11067,0.081 z m 26.33871,41.28153 c 0.3579,-0.26741 0.86963,-0.77967 1.13718,-1.13799 0.47929,-0.64182 0.48753,-0.90319 0.55325,-17.5652 0.0736,-18.6593 0.10364,-18.23777 -1.38881,-19.49358 -0.97648,-0.82162 -2.09477,-1.07482 -4.75411,-1.0763 l -2.30074,-0.001 v 19.95823 19.95823 l 3.05126,-0.0778 c 2.64025,-0.0672 3.13892,-0.14326 3.70197,-0.56425 z m 0.0248,-54.18671 c 1.75888,-1.16431 1.74498,-1.04359 1.66762,-14.46597 l -0.0679,-11.79849 -0.53985,-0.86814 c -0.88388,-1.42142 -2.07836,-1.84554 -5.19796,-1.84554 h -2.63915 v 14.89041 14.89035 l 2.90815,-0.0835 c 2.6915,-0.0768 2.97974,-0.13053 3.8691,-0.71937 z m -139.84325,12.90514 v -56.77141 h 18.17962 18.17968 l -0.0626,7.37677 -0.0626,7.37674 -8.321,0.0623 -8.32096,0.0619 v 15.34059 15.3406 h 7.55378 7.55377 v 6.72759 6.72759 h -7.55377 -7.55378 v 27.26444 27.26443 h -9.79633 -9.79629 z m 45.57001,61.41641 v -10.6033 l 15.32145,-28.25468 c 8.42679,-15.54008 15.77251,-29.22483 16.32382,-30.41053 0.55131,-1.18575 1.30434,-3.34203 1.67345,-4.79175 0.65601,-2.57678 0.67108,-3.01507 0.67186,-19.55668 l 8.1e-4,-16.92082 -0.72898,-1.27276 c -1.02707,-1.79326 -2.76482,-2.60378 -5.12396,-2.38985 -2.08229,0.18889 -3.27047,0.92884 -4.06797,2.53367 -0.52389,1.05426 -0.56662,2.19049 -0.64572,17.17784 l -0.0845,16.04888 -11.12279,6.26264 c -6.11752,3.44443 -11.23901,6.30914 -11.3811,6.36595 -0.14396,0.0577 -0.21754,-11.93237 -0.16554,-27.10323 0.0849,-24.89932 0.13724,-27.358989 0.61866,-29.00351 1.69619,-5.794581 5.27524,-9.292701 11.09515,-10.844262 2.77706,-0.740372 28.86216,-0.938633 32.85418,-0.249726 7.10356,1.225854 11.53246,5.303227 13.01922,11.985789 0.41017,1.843769 0.45601,4.886159 0.35673,23.672159 -0.12487,23.63458 -0.0393,22.43844 -2.03181,28.41504 -1.26576,3.79684 -2.86015,6.88758 -18.04156,34.97395 -7.36146,13.6191 -13.38447,24.83848 -13.38447,24.93201 0,0.0934 7.54698,0.17014 16.7711,0.17014 h 16.77106 v 9.73319 9.73326 h -29.34937 -29.3494 z"
       inkscape:export-filename="io.github.fpiesche.f2bgl.svg"
       inkscape:export-xdpi="96"
       inkscape:export-ydpi="96" /></g></svg>