<?xml version="1.0" encoding="UTF-8"?>
<svg enable-background="new 0 0 500 500" version="1.1" viewBox="0 0 500 500" xml:space="preserve" xmlns="http://www.w3.org/2000/svg"><defs><linearGradient id="linearGradient4" x1="-261.5" x2="-261.5" y1="361.74" y2="300.41" gradientTransform="matrix(.86191 0 0 .65143 270.89 32.233)" gradientUnits="userSpaceOnUse"><stop offset="0"/><stop stop-color="#040a70" offset="1"/></linearGradient><filter id="filter5" x="-.0256" y="-.19563" width="1.0637" height="1.3913" color-interpolation-filters="sRGB"><feGaussianBlur stdDeviation="3.3324287"/></filter><filter id="filter6" x="-.051332" y="-.057458" width="1.1027" height="1.1088" color-interpolation-filters="sRGB"><feGaussianBlur stdDeviation="4.6213537"/></filter>



</defs><g transform="matrix(.74932 0 0 .74932 60.459 63.529)" clip-rule="evenodd" fill="none" filter="url(#filter6)" stroke="#34b4de" stroke-opacity=".8" stroke-width="15" style="mix-blend-mode:normal">
	<path d="m57.452 117.67s-1.082-33.984-2.164-53.455c41.106 89.242 156.85 123.86 156.85 123.86l-6.49 48.137-51.923 43.27-32.452-35.698"/>
	<path d="m176.98 193.48s-134.14-80.589-151.98-101.14c4.327 24.879 11.899 68.149 11.899 68.149l24.88 5.408-18.93 18.389 7.572 33.534 24.88-9.735-16.227 42.728 37.32-13.521-22.176 50.84z"/>
	<path d="m280.83 192.94 10.277 73.556-39.484 115.75h-2.705l-39.483-115.75 10.276-73.556 30.831 18.029z"/>
	<path d="m129.39 308.68 77.885-67.067-3.245 25.963 15.144 44.891-10.817 50.3 3.245-49.219-11.899 42.188 4.327-49.76-11.358 42.73 2.164-49.76-10.277 45.974z"/>
	<path d="m224.58 310.85-17.308 109.8 42.187 15.144 42.188-15.144-16.406-107.45"/>
	<path d="m250 82.602-27.313 101.68 27.584 18.93 27.584-18.93z"/>
	<path d="m442.55 117.67s1.081-33.984 2.163-53.455c-41.105 89.242-156.85 123.86-156.85 123.86l6.491 48.137 51.923 43.27 32.451-35.698"/>
	<path d="m323.02 193.48s134.14-80.589 151.98-101.14c-4.326 24.879-11.898 68.149-11.898 68.149l-24.881 5.408 18.93 18.389-7.572 33.534-24.879-9.735 16.226 42.728-37.319-13.521 22.174 50.84z"/>
	<path d="m370.61 308.68-77.886-67.067 3.246 25.963-15.144 44.891 10.816 50.3-3.244-49.219 11.898 42.188-4.326-49.76 11.358 42.73-2.165-49.76 10.277 45.974z"/>
</g><g transform="matrix(.74932 0 0 .74932 60.459 62.779)" clip-rule="evenodd" fill="none" stroke="#fff" stroke-width="3">
	<path d="m57.452 117.67s-1.082-33.984-2.164-53.455c41.106 89.242 156.85 123.86 156.85 123.86l-6.49 48.137-51.923 43.27-32.452-35.698"/>
	<path d="m176.98 193.48s-134.14-80.589-151.98-101.14c4.327 24.879 11.899 68.149 11.899 68.149l24.88 5.408-18.93 18.389 7.572 33.534 24.88-9.735-16.227 42.728 37.32-13.521-22.176 50.84z"/>
	<path d="m280.83 192.94 10.277 73.556-39.484 115.75h-2.705l-39.483-115.75 10.276-73.556 30.831 18.029z"/>
	<path d="m129.39 308.68 77.885-67.067-3.245 25.963 15.144 44.891-10.817 50.3 3.245-49.219-11.899 42.188 4.327-49.76-11.358 42.73 2.164-49.76-10.277 45.974z"/>
	<path d="m224.58 310.85-17.308 109.8 42.187 15.144 42.188-15.144-16.406-107.45"/>
	<path d="m250 82.602-27.313 101.68 27.584 18.93 27.584-18.93z"/>
	<path d="m442.55 117.67s1.081-33.984 2.163-53.455c-41.105 89.242-156.85 123.86-156.85 123.86l6.491 48.137 51.923 43.27 32.451-35.698"/>
	<path d="m323.02 193.48s134.14-80.589 151.98-101.14c-4.326 24.879-11.898 68.149-11.898 68.149l-24.881 5.408 18.93 18.389-7.572 33.534-24.879-9.735 16.226 42.728-37.319-13.521 22.174 50.84z"/>
	<path d="m370.61 308.68-77.886-67.067 3.246 25.963-15.144 44.891 10.816 50.3-3.244-49.219 11.898 42.188-4.326-49.76 11.358 42.73-2.165-49.76 10.277 45.974z"/>
</g><path transform="matrix(.86191 0 0 .65143 417.16 -75.545)" d="m-431.2 465.86h41.553q10.463 0 16.927.76556 6.4222.89315 9.7396 2.3817 6.252 2.5944 9.4419 6.8475 3.1048 4.2956 3.1048 10.037 0 5.5715-2.4243 9.3993-1.4035 1.9139-3.3174 3.5726-1.999 1.6587-4.6784 2.9772-4.6359 2.1691-10.292 3.0197-2.5944.38278-7.3153.63797-4.7209.25518-10.378.25518h-23.264v21.436h-19.096zm41.297 11.016h-22.201v17.991h23.434q8.889 0 13.014-2.2541 4.0404-2.2116 4.0404-6.7199 0-4.891-4.083-6.9751-4.168-2.0415-14.205-2.0415zm135.22 0h-23.52v15.396h23.52q9.3568 0 13.27-1.7438 3.7002-1.9564 3.7002-6.0394 0-4.168-3.6576-5.9118-3.7427-1.7012-13.312-1.7012zm-42.616-11.016h47.209q16.374 0 24.03 4.5508 7.6981 4.5083 7.6981 13.908 0 6.89-4.7209 11.398-4.6784 4.5508-13.652 5.8693l22.711 25.604h-21.606l-19.947-24.03h-22.626v24.03h-19.096zm172.52 10.718q-10.292 0-15.609 3.4875-5.2738 3.4875-5.9968 10.718l53.036.0851v10.633h-53.121q0 8.0809 5.0612 11.483 4.9761 3.4875 16.63 3.4875h31.43v10.718h-32.366q-5.6991 0-9.612-.25518-3.9128-.29772-7.2302-.97821-5.9118-1.1483-11.483-4.168-6.89-3.6577-10.505-9.7396-3.5726-6.1244-3.5726-14.418 0-16.077 10.463-23.902 10.505-7.8682 32.451-7.8682h31.856v10.718zm73.251-10.718h21.606l22.499 23.435 22.711-23.435h22.201l-35.173 34.237v27.092h-19.096v-27.092z" fill="#34b4de" fill-opacity=".8" filter="url(#filter5)" stroke="#34b4de" stroke-opacity=".8" stroke-width="8.0006" style="paint-order:markers stroke fill" aria-label="PREY"/><path d="m45.498 227.93h35.815q9.0179 0 14.59.4987 5.5354.58182 8.3947 1.5515 5.3887 1.69 8.1381 4.4606 2.676 2.7983 2.676 6.5386 0 3.6294-2.0895 6.123-1.2097 1.2468-2.8593 2.3273-1.7229 1.0805-4.0324 1.9394-3.9957 1.413-8.8712 1.9671-2.2361.24935-6.3052.41559-4.069.16623-8.9445.16623h-20.052v13.964h-16.459zm35.595 7.1758h-19.135v11.72h20.199q7.6615 0 11.217-1.4684 3.4825-1.4407 3.4825-4.3775 0-3.1862-3.5192-4.5437-3.5925-1.3299-12.244-1.3299zm116.55 0h-20.272v10.029h20.272q8.0648 0 11.437-1.1359 3.1892-1.2745 3.1892-3.9342 0-2.7152-3.1526-3.8511-3.2259-1.1082-11.474-1.1082zm-36.731-7.1758h40.69q14.113 0 20.712 2.9645 6.6351 2.9368 6.6351 9.0598 0 4.4883-4.069 7.4251-4.0324 2.9645-11.767 3.8234l19.575 16.679h-18.622l-17.193-15.654h-19.502v15.654h-16.459zm148.7 6.9818q-8.8712 0-13.453 2.2719-4.5456 2.2719-5.1688 6.9818l45.712.0554v6.9264h-45.786q0 5.2641 4.3623 7.4806 4.289 2.2719 14.333 2.2719h27.09v6.9818h-27.897q-4.9122 0-8.2847-.16623-3.3725-.19394-6.2318-.63724-5.0955-.74805-9.8977-2.7152-5.9386-2.3827-9.0545-6.3446-3.0793-3.9896-3.0793-9.3922 0-10.473 9.0179-15.571 9.0545-5.1256 27.97-5.1256h27.457v6.9818zm63.136-6.9818h18.622l19.392 15.266 19.575-15.266h19.135l-30.316 22.303v17.649h-16.459v-17.649z" fill="url(#linearGradient4)" stroke-linecap="round" stroke-opacity=".8" stroke-width="2.7195" style="paint-order:markers stroke fill" aria-label="PREY"/></svg>
