<?xml version="1.0" encoding="UTF-8"?>
<svg version="1.1" viewBox="0 0 200 200" xml:space="preserve" xmlns="http://www.w3.org/2000/svg"><g><path d="m100.62 185.32c-46.009.18376-83.504-37.253-83.868-83.738-.36372-46.484 36.541-84.516 82.547-85.067" style="paint-order:markers stroke fill"/><path d="m99.521 184.47c46.009.18376 83.504-37.253 83.868-83.738.36371-46.484-36.541-84.516-82.547-85.067" fill="#fdfdfd" style="paint-order:markers stroke fill"/><path d="m56.892 63.607c-9.7877-.000139-20.651 8.943-20.556 20.967.09331 11.789 9.1002 20.8 20.556 20.624 7.9551-.12199 21.379 7.7155 21.379 21.751 0 12.024 11.024 21.186 21.332 20.804l.16244-41.749c-8.5428-1.1528-15.301-4.9148-19.141-12.943 5.722-2.9398 12.15-4.464 19.21-4.7236l.02731-7.016c-23.745 0-25.85-17.714-42.969-17.714z" fill="#fff" style="paint-order:markers fill stroke"/></g><path d="m99.825 184.5c-46.009.18376-83.504-37.253-83.868-83.738-.36372-46.484 36.541-84.516 82.547-85.067" fill="none" stroke="#fff" stroke-linecap="square" stroke-linejoin="round" stroke-width="11.312" style="paint-order:markers stroke fill"/><path d="m99.521 178.92h11.265v-5.6324h16.897v-5.6324h11.265v-5.6324h11.265v-5.6324h5.6324v-5.6324h5.6324v-11.265h5.6324v-11.265h5.6324v-16.897h5.6324v-22.529h-5.6324v-16.897h-5.6324v-11.265h-5.6324v-11.265h-5.6324v-5.6324h-5.6324v-5.6324h-11.265v-5.6324h-11.265v-5.6324h-16.897v-5.6324h-11.265v-11.265h16.897v5.6324h16.897v5.6324h11.265v5.6324h11.265v5.6324h5.6324v5.6324h5.6324v5.6324h5.6324v11.265h5.6324v11.265h5.6324v16.897h5.6324v33.794h-5.6324v16.897h-5.6324v11.265h-5.6324v5.6324h-5.6324v11.265h-5.6324v5.6324h-11.265v5.6324h-5.6324v5.6324h-11.265v5.6324h-16.897v5.6324h-16.897zm0-73.221h11.265v-5.6324h5.6324v-11.265h-16.897v-5.6324h5.6324v-5.6324h11.265v-5.6324h5.6324v-5.6324h5.6324v-5.6324h22.529v5.6324h5.6324v5.6324h5.6324v22.53h-5.6324v5.6324h-5.6324v5.6324h-16.897v5.6324h-11.265v22.529h-5.6324v5.6324h-5.6324v5.6324h-11.265z" stroke-width="2.1288"/></svg>
