<?xml version="1.0" encoding="UTF-8"?>
<svg width="128" height="128" version="1.1" viewBox="0 0 33.867 33.867" xml:space="preserve" xmlns="http://www.w3.org/2000/svg" xmlns:xlink="http://www.w3.org/1999/xlink"><defs><linearGradient id="linearGradient5" x1="49.213" x2="49.213" y1="155.58" y2="171.32" gradientUnits="userSpaceOnUse"><stop stop-color="#9d7200" offset="0"/><stop stop-color="#684b00" stop-opacity=".99216" offset="1"/></linearGradient><linearGradient id="linearGradient7" x1="83.036" x2="83.036" y1="148.09" y2="163.49" gradientTransform="translate(-6.782 -9.4466)" gradientUnits="userSpaceOnUse"><stop stop-color="#593f00" offset="0"/><stop stop-color="#2f2200" offset="1"/></linearGradient><linearGradient id="linearGradient9" x1="82.475" x2="82.475" y1="148.17" y2="163.57" gradientTransform="translate(-6.2207 -9.5251)" gradientUnits="userSpaceOnUse"><stop stop-color="#5e450a" offset="0"/><stop stop-color="#392604" offset="1"/></linearGradient></defs><g transform="translate(-32.279 -138.64)" stroke-miterlimit="6.9"><g stroke-width="1.1296"><path d="m49.212 171.08c-8.5605-.00014-15.5-6.9398-15.5-15.5l1.8731-5.4901h27.255l1.873 5.4901c-.00014 8.5606-6.9398 15.5-15.5 15.5z" fill="url(#linearGradient5)" style="paint-order:markers stroke fill"/><path d="m49.212 140.07a15.501 15.501 0 00-15.5 15.5h31.001a15.501 15.501 0 00-15.5-15.5z" fill="#735200" style="paint-order:markers stroke fill"/></g><g stroke-width=".35278"><path d="m61.714 155.58a12.502 12.502 0 01-12.502 12.502 12.502 12.502 0 01-12.502-12.502 12.502 12.502 0 0112.502-12.502 12.502 12.502 0 0112.502 12.502z" fill="#fea200" style="paint-order:markers stroke fill"/><path d="m45.409 150.71 2.0243 4.5789-5.0777-4.5789z" fill="#fe6700" style="paint-order:markers stroke fill"/><path d="m56.13 147.87-13.836 15.405 5.0596 4.6602a12.502 12.502 0 001.8583.13901 12.502 12.502 0 0012.502-12.502 12.502 12.502 0 00-.28422-2.6505z" fill="#fe6700" stop-color="#000000" style="-inkscape-stroke:none;font-variation-settings:normal;paint-order:markers stroke fill"/></g><g transform="translate(-27.011 9.2307)"><path d="m83.141 138.64-9.9066 15.405h-3.9289l9.9066-15.405z" fill="url(#linearGradient9)" stroke-width=".38581" style="paint-order:markers stroke fill"/><path d="m73.174 138.64 8.2265 12.593h1.7407v2.8112c0 1e-5-1.9315 0-3.7746 0l-8.0777-12.568h-1.9226v-2.836z" fill="url(#linearGradient7)" stroke-width=".3266" style="paint-order:markers stroke fill"/></g></g></svg>
