<?xml version="1.0" encoding="UTF-8"?>
<svg width="512pt" height="512pt" version="1.1" viewBox="0 0 180.62 180.62" xml:space="preserve" xmlns="http://www.w3.org/2000/svg" xmlns:xlink="http://www.w3.org/1999/xlink"><defs><radialGradient id="radialGradient6" cx="70.209" cy="63.686" r="42.788" gradientTransform="matrix(1 0 0 1.6203 0 -55.981)" gradientUnits="userSpaceOnUse"><stop stop-color="#fdf4d8" offset="0"/><stop stop-color="#f3c530" offset="1"/></radialGradient><radialGradient id="radialGradient9" cx="90.311" cy="90.311" r="84.322" gradientUnits="userSpaceOnUse"><stop stop-color="#4041d0" offset="0"/><stop stop-color="#101140" offset=".93312"/></radialGradient><radialGradient id="radialGradient9-3" cx="69.937" cy="47.734" r="84.322" gradientTransform="matrix(.70237 0 0 .70237 20.816 14.207)" gradientUnits="userSpaceOnUse"><stop stop-color="#fff" offset="0"/><stop stop-color="#101140" stop-opacity="0" offset=".93312"/></radialGradient></defs><path d="m174.63 90.311a84.322 84.322 0 01-84.322 84.322 84.322 84.322 0 01-84.322-84.322 84.322 84.322 0 0184.322-84.322 84.322 84.322 0 0184.322 84.322z" fill="url(#radialGradient9)" stroke-miterlimit="6.9" stroke-width="1.087" style="paint-order:markers stroke fill"/><path d="m174.63 90.311a84.322 84.322 0 01-84.322 84.322 84.322 84.322 0 01-84.322-84.322 84.322 84.322 0 0184.322-84.322 84.322 84.322 0 0184.322 84.322z" fill="url(#radialGradient9-3)" stroke-miterlimit="6.9" stroke-width="1.087" style="paint-order:markers stroke fill"/><path d="m90.363 21.331c-3.3513 0-4.7146.05373-7.2975.28666-10.747.96915-19.784 4.1605-26.152 9.235-1.171.93319-3.3937 3.1366-4.246 4.209-3.2027 4.0298-4.8505 8.7098-4.6723 13.271.05998 1.5358 5.8232 65.621 5.9577 66.248.25271 1.1784.87112 2.326 1.8731 3.4748.27685.31741 1.0299 1.041 1.6734 1.6082 2.7711 2.442 3.4925 3.3231 3.8145 4.6584.06017.24949.25513 1.7201.43326 3.2681.21535 1.8715.36212 2.8904.43805 3.0406.19878.3933.44218.67185 1.047 1.1984.32356.28168.67696.62632.78517.76603.18792.24265.19661.29039.19661 1.0597 0 .44293-.03165.88876-.07047.99092-.03883.10217-.238.33762-.44239.52329-.2044.18568-.47843.43895-.609.5629l-.23751.22533v.86955c0 .61164.03042.92633.10179 1.0623.14816.28224.55547.64335 1.3737 1.2171 1.0387.72837 1.1001.81484 1.1001 1.5512 0 .32822-.02097.65151-.04657.71818-.0256.0667-.36175.32523-.74732.57463-.91834.59401-.94106.63893-.91088 1.8231l.02352.91915.25056.26143c.16962.17721.62435.44344 1.4103.82476 1.5151.73514 1.9523 1.1262 1.9523 1.7474 0 .52297-.28833.84172-1.0014 1.1084-.68289.25539-.71557.32783-.71557 1.5716 0 1.0489.00018 1.0517.21489 1.3759.11835.17867.33559.40814.48285.50982.52154.36019.7281.40629 1.8244.40629.66987 0 1.1642.0362 1.4277.10484.22167.0577 1.943.78584 3.8249 1.6178 5.4709 2.4185 7.2554 3.1626 8.3937 3.5004.44828.13303.63224.15163 1.1175.11224l.58072-.0469.34931.26578c.19205.1463.56728.45338.83389.68251l.48459.41674 10.334-.00088.63945-.54071c1.0235-.86549.94056-.8262 1.6273-.77341.57556.0442.63132.0343 1.5617-.27841 1.2654-.42522 2.825-1.0791 7.3323-3.075 2.0461-.90602 3.8974-1.7128 4.1138-1.7926.3181-.11732.64019-.15299 1.6813-.18793 1.4186-.0476 1.5117-.0732 2.0484-.5581.49732-.44931.56283-.65867.56114-1.7865-.002-1.189.002-1.183-.86912-1.5821-.7041-.32279-.84651-.49992-.84651-1.0557 0-.6659.31834-.96016 1.8118-1.6756 1.1861-.56823 1.5951-.84701 1.7352-1.1823.0656-.15678.10179-.5041.10179-.97439 0-.94748-.11842-1.2178-.6873-1.5669-1.0415-.63901-1.1399-.7857-1.0871-1.6238.0257-.40722.0537-.47295.31103-.73645.1554-.15914.61291-.51785 1.017-.79692.75258-.51972 1.1201-.87012 1.238-1.1801.0366-.0966.067-.53463.067-.97352v-.7978l-.6364-.6103c-.71714-.68788-.79376-.85079-.7943-1.6926-.00074-.95331-.0345-.89886 1.3668-2.2089.31688-.29625.59733-.63215.68642-.82258.1202-.25694.21772-.90703.48199-3.2194.3436-3.0066.41795-3.4097.75385-4.0742.46924-.92825 1.1113-1.633 3.0089-3.303 2.4732-2.1766 3.4636-3.475 3.9319-5.1552.0835-.29947.2071-1.1683.28841-2.0266.39694-4.1885 5.6644-63.178 5.7224-64.084.26246-4.1011-.93242-8.3199-3.4191-12.071-1.5161-2.2869-3.767-4.6219-6.2757-6.5106-5.6869-4.2814-13.601-7.1791-22.756-8.3328-3.4919-.44-5.7487-.57072-9.867-.57072zm-4.1856 4.5318c2.1597-.09587 8.5336-.05101 10.302.07264 8.7554.6122 15.071 2.0671 20.282 4.6727 7.1475 3.5736 11.287 9.0648 12.307 16.324.19194 1.3702.27043 3.334.18835 4.728-.0417.70783-1.2673 14.293-2.7239 30.19-1.4566 15.897-2.6818 29.324-2.7227 29.839-.0849 1.0714-.212 1.6316-.45674 2.0149-.25107.39325-1.1271 1.2115-2.5848 2.4142-2.938 2.4242-4.0053 3.8862-4.902 6.715-.9815 3.0963-1.3317 3.9257-1.9183 4.5431-.61373.64592-.7328.67885-2.6252.72295l-1.6473.0383-.49893.2449c-.57688.28324-1.287.94734-1.5373 1.4377-.09.1763-.30652.78751-.4811 1.3581-2.2454 7.338-6.829 11.558-13.683 12.596-.68995.1045-1.4358.15377-2.6113.17314-1.761.029-2.4934-.0179-3.8584-.2484-6.5418-1.1047-11.031-5.3556-13.223-12.521-.17459-.57055-.39094-1.1823-.48111-1.3594-.2449-.48088-.97895-1.1625-1.5508-1.4407l-.48893-.23794-1.6452-.0401c-1.6055-.0387-1.6547-.0441-2.0123-.23011-.48134-.25026-.87467-.70847-1.2637-1.4716-.36124-.70864-.50557-1.1045-1.1632-3.1911-.54093-1.7164-.90793-2.549-1.5569-3.5318-.83882-1.2704-1.4152-1.8492-3.9485-3.9663-1.1568-.96672-2.0247-1.8228-2.1967-2.1663-.17724-.35386-.26184-.81176-.34452-1.8631-.04317-.54913-1.2888-14.133-2.7679-30.188l-2.6896-29.189-.0047-1.8962c-.0047-2.052.09579-3.2146.42064-4.8324 1.3186-6.5665 5.3839-11.608 12.053-14.949 5.6243-2.8169 12.718-4.3501 22.036-4.7637zm-15.64 12.85c-2.7555-.09421-5.5517 1.1482-7.2975 3.7636-1.0625 1.5918-1.5149 3.3593-1.3741 5.3705.26096 3.7285 3.1611 6.9219 6.8986 7.5968 1.2812.23136 2.9318.10744 4.1938-.31538 2.4732-.82861 4.4828-2.8408 5.3035-5.3104.74008-2.2272.48165-4.8637-.67119-6.8512-1.583-2.7292-4.2976-4.1596-7.0531-4.2538zm37.916 1.3929-.38889.29058c-.96193.71924-2.3091 1.3432-3.6079 1.6713-1.6579.41876-3.254.59244-6.1883.67295l-1.7526.04832v7.5833l1.8601.04613c1.9833.04899 2.4464.11593 3.0954.44805.18614.09525.45653.29666.60072.44761.78597.82282.93734 1.8851.9035 6.3362l-.0209 2.7705-1.2162-.67816c-2.7206-1.5171-4.5574-2.0465-7.4763-2.1554-4.4239-.16505-8.527 1.2991-12.446 4.4418-.49308.39538-1.4359 1.2472-2.0949 1.8927l-1.1984 1.1736v-6.3301l-6.6176.05656-6.7607 1.201c-3.7184.66054-6.7734 1.2135-6.789 1.2289-.01568.01541.0085 1.2603.05441 2.7661.04563 1.5058.08265 2.951.08228 3.212l-.00084.47458 1.4129.03435c1.2018.02895 1.488.058 1.914.19357.65833.20956 1.0547.44444 1.5595.9248.71759.68294 1.1259 1.5315 1.2719 2.643.09191.69947 1.2106 16.598 1.2106 17.205 0 .8132-.34578 1.6736-.91829 2.2859-.70153.75026-1.3048 1.0272-2.4725 1.134-.43681.03999-.98756.12127-1.2237.18053-1.5044.37786-2.8109 1.614-2.9393 2.7814-.03287.29938 1.1614 14.69 1.3033 15.703.06291.44898.29571 1.1866.50546 1.6012.44132.87231 1.3325 1.4687 2.4543 1.6426.44809.0694 54.517.0434 55.089-.0265 2.1686-.26489 3.3194-1.1315 3.5774-2.6926.14884-.90061 1.2986-15.589 1.2632-16.138-.0768-1.1935-.79381-2.0816-2.061-2.553-.2118-.07879-.7954-.2402-1.2967-.35887-2.3452-.55517-3.1496-1.5507-3.3552-4.1529-.0684-.86511.029-3.4139.93265-24.445.5549-12.913 1.0092-23.498 1.0092-23.52 0-.02233-2.087-.04046-4.6375-.04046zm-29.967 25.075.03571 12.27.03608 12.27.1975.42196c.23259.49659 1.2031 1.5 1.877 1.9405 1.0242.66939 2.3171 1.155 3.2694 1.2284l.55811.0431v2.6722c0 1.4697-.01134 2.6726-.02522 2.6726-.08351 0-1.6564-.81144-2.0136-1.0388-4.4267-2.8175-7.5962-8.7767-8.295-15.595-.23993-2.3411-.21104-3.9958.10439-5.9542.5002-3.1055 1.8082-6.6252 3.694-9.9414zm17.54.90697c.45338-.02643.91097.0067 1.3685.10092 1.5516.31971 2.8176 1.1115 4.7906 2.9967l.87607.83737v18.531l-.61638.58246c-2.0398 1.9272-4.0659 3.1152-5.9921 3.513-1.116.23052-2.41.09558-3.3904-.35322-.90939-.41633-2.0814-1.4957-2.797-2.5761-1.2117-1.8292-2.1753-4.7376-2.449-7.3928-.10817-1.0492-.04515-3.6574.11223-4.6619.6748-4.3053 2.1849-7.7642 4.2678-9.7735 1.1497-1.1091 2.4696-1.7246 3.8297-1.8039zm1.5625 34.18c3.0707.40487 4.6945 1.873 4.9372 4.4635l.0518.5494h-6.3127v-1.3433c0-1.5274-.01351-1.5728-.53331-1.7713-.50274-.192-1.2848-.0213-1.4677.32059-.04751.0887-.07349 1.3105-.07349 3.4356 0 3.567.0066 3.6418.3828 3.888.4697.30775 1.3118.20624 1.5516-.18706.12365-.20284.1394-.36519.13964-1.4272l.000434-1.198h6.1735l-.0452.53722c-.12202 1.4436-.67001 2.4703-1.6691 3.1281-.95402.6281-2.0662.92667-3.9224 1.0527-2.6073.17703-5.1047-.0447-6.481-.5755-1.0051-.38761-1.6186-.96588-1.8892-1.7804-.09785-.29548-.1106-.76731-.09267-3.4804l.02088-3.1385.1753-.35757c.22958-.46843.79085-1.0187 1.3289-1.3024.5426-.28611 1.454-.55206 2.4073-.70253.99277-.15671 4.4269-.22831 5.3174-.11092zm-21.498.0584 4.4892.0461c2.4691.0254 4.7389.0653 5.0438.0883l.55419.0417v2.4177h-3.9346v1.8601h4.0063v2.0649l-1.9675-.0421-1.9675-.0418.000435.35104c.00017.19306.02097.76154.04657 1.2632l.04657.91176h4.3421v2.3612h-10.075l-.04393-.59029c-.07028-.94262-.54114-9.9628-.54114-10.366zm39.419.15442c1.7116-.0236 3.1333-.0236 3.159 0 .0316.0291-.66322 10.664-.72383 11.078-.002.009-1.3564.0178-3.0115.0178h-3.0093l.0374-.30407c.0206-.16724.0554-.86738.077-1.556.0215-.68859.0587-1.598.0831-2.021l.0444-.76908h-.76037c-.55811 0-.7618.0239-.76517.0896-.003.0491-.075 1.1034-.16095 2.3429l-.15615 2.2537-5.9921.0374.0452-1.5568c.025-.85628.0796-3.3277.12093-5.4919.0414-2.1642.0882-3.975.1044-4.0242.0229-.0697.72501-.0897 3.1903-.0897h3.1607l-.0457.91219c-.0251.50169-.0669 1.4191-.093 2.0388l-.0474 1.1271h1.5242l.009-.7334c.005-.40332.029-1.3127.0536-2.021l.0448-1.288zm-54.087.006 13.344.0364v2.4325l-3.3982.0382.000841.19576c.000387.10749.06433 1.9337.14224 4.0585.07793 2.1248.14186 3.984.14224 4.1316l.000841.2684h-6.0094l.000444-.33974c.000841-.51251-.28245-7.3462-.3293-7.94l-.0409-.51764-3.6727-.0382-.0444-.42935c-.02447-.23609-.06518-.75922-.09002-1.1628zm18.19 18.584v5.9804c0 2.4722 2.0014 4.497 4.4735 4.497h11.49v5.9799h5.5092v-16.457h-5.5092v5.9804h-9.7235c-.42379 0-.75341-.32962-.75341-.75342v-5.2269z" fill="url(#radialGradient6)"/></svg>
