<?xml version="1.0" encoding="UTF-8"?>
<svg width="1024pt" height="1024pt" version="1.1" viewBox="0 0 1365.3 1365.3" xml:space="preserve" xmlns="http://www.w3.org/2000/svg"><defs><filter id="filter93" x="-.050417" y="-.034507" width="1.1004" height="1.0803" color-interpolation-filters="sRGB"><feGaussianBlur stdDeviation="5.4887156"/></filter><filter id="filter93-5" x="-.23896" y="-.13803" width="1.4391" height="1.3212" color-interpolation-filters="sRGB"><feGaussianBlur stdDeviation="21.954862"/></filter></defs>


<g transform="matrix(.92362 0 0 .92362 50.568 55.167)"><g transform="matrix(2.3506 0 0 2.3506 -497.08 -479.74)" fill="#4c8747" filter="url(#filter93-5)" stroke="#4c8747" stroke-width="36.303" style="mix-blend-mode:normal">
	<path d="m366.5 468.02c1.192 2.385 2.848 4.401 3.366 7.25.259 1.035 2.071 1.812 3.107 2.848 2.331 2.071 4.143 4.401 5.438 6.991.777 1.812 1.295 3.883 3.625 4.401.777 0 .777 1.295 1.295 1.553 3.884 3.625 7.25 7.51 11.392 11.134.259.259-.259 1.036 0 1.296 3.107 2.071 5.956 3.625 8.545 6.214.518.517 0 1.553.777 1.812.518 0 1.295-.259 1.812 0 3.884 2.848 7.509 5.179 11.393 8.286.518.259.518 1.295.777 2.331.259.259.518.517.777.777 1.553.518 3.366-.259 4.66.518 5.179 2.33 9.839 5.178 15.277 7.25.777.518 1.036 1.553 1.812 2.071.259 0 .518.518 1.036.259.259 1.295-.518 2.848 1.036 3.366 1.812.518 4.143.259 5.438-.518 1.553-.777 2.848-.258 4.143.259 2.848.777 5.697 1.295 8.286 2.331.777.259 1.554 1.295 2.848 1.295.259 0 .518.777.777.777 1.036-.259 1.813-.777 2.848-.777 3.366.517 6.214 1.553 9.58 1.812-.259 0-.259.259-.259.517-.259.259-.777-.517-1.295-.258-.259 0-.518.258-.259.517.777.777 1.812 2.071 2.848 1.295-.518.259-.776 1.036-.259 1.294 1.036 0 1.036 0 1.812.778.518.259 1.036 0 1.295-.518.259-1.036-.518-1.553-1.295-1.812.259 0-.259-.777.259-.518.518.518 1.036 1.553 1.812.777-.518-.259-.259-1.035-.777-1.295.259.259.777.777 1.035.518.518-.778 1.554-.259 1.813-.778.518-5.178-.518-10.357.777-15.535 0-1.036-1.294-2.33-.259-3.107.776-.259 1.294-.518 1.812-.777 1.295-.777 2.848.259 4.402-.517 0 0 .259.517.518.517.518.259 1.295-.259 1.036-.517-1.553-1.813-4.402-1.813-6.991-2.071-.259-.259-1.035-.259-1.035-.777.259-7.768-.777-15.536 0-23.562.259-6.215 2.071-11.911 3.625-17.867.518-1.553 1.813-2.33 2.848-3.625.259-.259-1.036-.777-.777-1.553 0-.777.259.777.777.259 1.036-.777.259-2.071.777-2.848.518-.518 2.071.259 2.071-.777 0-.777-1.036-1.295-2.071-1.036.259-.518 1.036-.518 1.295-1.036s-.518-1.036-.518-1.295c1.812-7.509 5.697-13.723 8.545-20.455 5.956 11.651 10.875 23.821 14.241 36.508-.518 0-1.295-.259-1.553.259-.259.777 0 1.812 1.035 1.812.518 0 .259-.777.777-.777.259 0 .259.518.259.777-.777-.259-1.295.777-1.036 1.295.518.777.777.777 1.553.259-1.035.777.777 2.071.518 3.107h-1.295c-.777.258 0 1.035 0 1.294.259.518 1.553.518 1.813 1.295 1.553 7.768 1.295 15.017.518 22.527-.259 2.589-1.554 4.919-2.071 7.768 0 .259.259.518.517.518.518 0 1.036-.259 1.295 0 .518 1.035-.777 1.812-.777 2.33.259 1.553.777 3.107.777 4.919 0 .259.518.259.518.518v10.875c-.259-.259-.518-.259-.777-.259-.259.259-.777.517-.518 1.035.259.777 1.036.517 1.553.517 3.107.778 6.214-1.035 9.322-.258.777.258 1.553.258 2.33-.259v-.518c1.295-.777 3.107-1.036 4.401-.259.26 0-.517 1.294-.258 1.813.776.777.517 1.295.517 2.071.259.258 1.295 1.035 1.553.258.518-1.812 0-4.142 1.553-5.177.777-.519 1.813-.519 2.848-.519.519 0 .519-.776.777-1.035 4.662-1.553 9.322-2.589 13.724-4.402.259.777.259 1.814 1.035 2.071.518 0 1.036.259 1.553-.258-1.294-.778 0-1.296 0-2.331 0-.259-.259-.259-.517-.259 2.589-1.035 4.919-2.589 7.768-2.848h1.295c.518-.518 1.553-.518 1.295-1.553.777.259 1.035 1.035 1.812 1.035.259-.259.518-.517.518-1.035 1.035-.259 1.813-.777 2.33-1.553 1.295-2.071 4.143-1.813 6.214-3.366v-.777c1.036-.777 2.331-1.295 3.367-2.071.259 0 .776.518 1.295.259 0 .777-.777 1.553-.519 1.553 1.813 1.554 1.295-2.071 2.331-2.848h.777c.518-.259.518-.777.518-1.295 1.036-1.294 2.589-2.071 4.142-3.107 1.036-.518 2.331 0 3.367-.777.777-.518.518-1.553 1.295-2.071 2.589-1.036 4.143-3.884 6.731-5.438h.778c.777-.777 1.812-1.035 2.33-1.553 1.813-1.296 3.625-2.589 4.401-4.661 1.295-3.107 4.661-4.661 6.732-7.509.777-.518 2.071-.777 2.071-1.553.777-2.589 2.589-4.402 4.401-6.214.259-.259.777 0 1.296 0 .259 0 .259-.518.517-.518 1.295-.259 2.589.777 3.883.518.259 0 .519-.259.259-.518-1.036-.777-1.812-2.071-1.812-3.107-.259-1.295.776-2.071 1.295-3.366 1.035-2.33 2.848-4.143 4.401-6.473.519-1.035 1.554 0 1.814-.777v-.777c1.553-1.036 1.553-2.848 2.071-4.661.517-2.33 2.848-3.366 4.66-5.178.259-.518-.777-1.036-.518-1.553 1.036-2.072 2.589-3.884 2.849-6.215 0-1.036 1.294-1.812 2.071-2.848.259-.518-.259-1.295-.259-2.071.518 0 1.553 0 1.553-.518 0-1.813.518-3.107 1.813-4.661.259-.518-.259-1.036-.259-1.553.259-.777 1.295-1.295 1.553-2.071 0-1.295.259-2.331 1.035-3.366v-1.295c0-3.884 2.849-7.509 2.849-11.393 0-.518-.259-1.554.259-1.812.777-.777 2.071-1.554 2.071-2.589.259-.518-.777-1.294-.777-2.071 0-.518.518-1.294.259-1.554-.259-1.294.518-2.589.777-3.884.777.259 1.813.518 2.59.259 1.294-.518 1.035-1.554 0-2.33-1.037-.518-1.814.259-2.849.259 0-.518-.259-1.295 0-1.812.777-.518.777.518 1.295 1.036.259 0 .517 0 .517-.259-.259-.777-1.294-1.812-1.294-2.071.517-12.687 1.294-25.116 0-37.803-.259-.518 1.294-.777 1.035-1.812-.259-.518-1.035-.518-1.295-1.036 0-.518.518-1.036.259-1.554s-1.036-.518-1.036-1.036c0-3.884-1.812-7.509-1.812-11.392.517 0 0 .776.517.776 1.813 0 2.071-2.33 3.625-3.366.259-.259 0-.517-.259-.517-1.035 0-1.812.517-2.589 1.553-.517.259-1.294-.518-2.071-.259-1.553-6.732-3.625-13.723-6.214-20.196 1.554-1.553 0-3.107-.259-4.92 0-.777-1.295-.518-1.553-1.036-.518-1.036-1.036-2.071-1.553-3.366-.259-1.295-1.295-2.589-2.071-4.143-.518-1.036 0-2.071-.259-3.107-.518-.777-1.553-1.294-1.553-1.812-.259-1.554-.518-2.33-1.295-3.625-.518-1.035-.777-3.107-1.812-3.107-1.554-.259-1.554-1.554-2.849-2.331-1.553-.777-1.036-3.366-2.33-4.919-.259-.259-1.035.259-1.295 0-4.143-5.438-7.768-10.357-11.91-15.795-.518-.518 0-1.553-.259-2.071-1.035-1.813-3.366-2.33-5.178-3.625-.777-.777 0-1.812-1.036-2.33-1.812-.518-3.883-1.812-4.401-3.625-.259-.518.777-1.035 1.295-.777 1.035.518.777 2.071 1.812 2.589.518 0 1.295 0 1.813.259 6.992 5.437 12.946 10.616 18.383 17.607.519.518.777 1.295 1.296 1.812h.776c1.554 1.294 2.849 2.848 3.367 4.66h.777c5.696 6.991 11.392 13.464 15.018 21.491.259.518.777.518 1.035.777 3.107 5.178 5.696 10.098 8.286 15.277.258.518-.259 1.035 0 1.553 1.035 1.812 1.553 3.884 2.329 5.955.259.259.777.259 1.036.518.518.777.777 1.553 1.035 2.33.519 1.036-.776 2.848 0 3.107 1.554.518 2.331 2.589 2.071 3.884 0 .518-1.295.259-1.812 1.036-.259.777 0 1.554.777 1.554s1.812-.777 1.812-.777c2.071 4.142 3.108 8.544 3.626 13.205-1.554 0-1.035 1.553-1.035 2.589 0 .259.259.259.517.259.518-.259.518-.777.518-1.295-.259-.518.259.259.517 0 .259 1.295.777 2.33.777 3.625-.259 0-.518 0-.518.259 0 .518.259.776.777 1.035.259.259-.259 1.036.259 1.295h.518c.259 2.589.777 4.92 1.035 7.25 0 .259-.518.259-.518.518-.259 1.036.777 1.553.259 2.589 0 .259.777 0 .777.518s-.259.777-.518 1.036l.518.518c.259.777-.777 1.295-.518 1.812 1.294 1.295.777 2.848 1.294 4.402 0 .259-1.035.518-1.035.777 0 .777 1.295 1.036 1.554 1.813.777 6.473.517 12.687 1.035 18.902.259 8.027-.518 15.794-2.33 24.08 0 .518-.518.777-.777 1.295s.259 1.294.517 2.071c0 1.812-1.035 3.625-1.294 5.437 0 .777-.777 1.295-1.295 2.071-.519.777.259 2.071.259 2.589-.259 4.143-1.813 8.027-3.107 12.169-.259.518-.777.777-1.036 1.295-.518 1.812-1.035 3.625-1.554 5.697-1.035 3.883-2.33 7.768-4.66 11.134-.777 1.295-1.295 2.589-1.812 4.143-.259 1.295-1.295 2.589-1.295 3.625.777 4.661 3.366 8.544 4.661 13.206-3.107 3.624-4.143 8.544-8.286 11.651v1.036c-.777 1.035-1.813 1.553-2.589 2.589-1.035 1.812-1.553 3.883-3.107 5.437-1.295.777-2.848 1.294-3.366 2.589-1.036 2.331-2.071 4.402-4.402 5.696-.259 0 .259 1.036.259 1.295-2.071 2.331-3.884 4.402-6.214 6.474-4.401-.259-8.804-.259-13.206-1.295-3.625 2.848-6.731 6.214-10.357 9.062-2.589 2.071-5.955 3.366-7.508 6.214-1.554 2.589-.259 6.214-1.554 9.322 0 .259-.777.777-.777 1.035-.259.518 1.036 0 1.036.777-.259.259-.777-.259-1.295-.259-.259 0-.259.518-.259.777s.259.259.517.259c-.517 1.813-2.589 2.331-4.143 2.849-.517 0-.777.777-1.295 1.553-.259.518-1.294 1.035-2.071 1.553-.517.518-1.035 0-1.553 0-.777.259-.777 1.295-1.554 1.813-4.66 2.848-8.803 5.438-13.722 7.25-.259.258-.777 0-1.036 0s-.259.517-.518.517c-1.035 0-2.33 0-3.107-1.295-.259-.518-.518.518-1.036.778 0 .258 0 .776-.259.776-1.035 0-1.813.518-2.071 1.295-.259.517.518.517.777.777-1.812-.259-3.107.776-4.401 1.812-1.553 1.295-3.625 2.331-5.437 1.554-3.625-1.814-7.25-4.143-10.616-6.733-10.616 2.848-21.492 5.438-32.625 6.214-.777 6.992.518 13.983-.517 20.973-.259 1.295-.518 2.848-1.554 4.143.26.259.26.777.777.518.259-.259.518-.518.518-1.036h.518c-1.295 1.036-.259 2.071 0 3.366-.518 0-.777.518-1.295.777-.518.519 0 1.036.518 1.553h-.518c-.259 0-.518.259-.259.518.517.518 1.295.777 1.553 1.553.259 1.036 0 2.331-.259 3.366-.259 1.554.517 3.107 0 4.662 0 .517-.778.777-.518 1.294 1.553 6.991.777 13.464.518 20.197 0 .517-1.036 1.035-1.295 1.812-.26 1.036 1.035 1.295 1.295 2.071.777 2.848.259 5.956.259 8.804-.259 2.589-1.036 4.919-2.071 7.509 0 0 .259.259.518.517-.518 0-1.295.519-1.295.777.259 1.036 1.295 1.295 2.071.519 0 1.553.259 3.107-.777 4.401-.26.259-1.813-.259-1.813.777-.259.518.518 1.036 1.295.777.259 7.25-2.071 14.241-2.33 21.491 0 1.036-1.295 1.295-1.554 2.331 0 .259.777.517.777.777-.259 1.295-.777 2.331-.517 3.625-.777 0-1.295.259-1.554.777-.259.517.518.517.518.776 0 .518-.777.518-.777 1.036-.259 1.036.518 2.331.518 3.108-1.553 11.652-5.179 22.526-7.768 33.66 0-.518-.778 0-.778-.518-.518.518-.777 1.295 0 1.814h.518c-.777 2.329-1.553 4.66-1.812 6.991-.777-.777 0-1.813-.259-2.848-.259-.519-.777-.519-1.036-1.036-3.107-12.428-6.214-24.339-8.804-36.509 1.036 0 1.036-.777 1.554-1.294v-.778c-.259-.777-1.554-.777-1.812-1.294-.259-.778-.259-1.554-.777-2.331-1.553-3.624-1.553-7.509-1.812-11.134.259 0 .518 0 .518-.259 0-2.071.518-4.143-.518-6.214-1.036-1.813-1.553-3.625-1.812-5.438 1.036.259 2.071-.259 1.553-1.295-.518-.518-1.553-.777-1.812-1.553-2.071-9.839-2.848-18.902-1.812-28.482 0-1.035 1.035-2.071 1.812-3.107 0-.259.259-.777-.259-1.036.777.259 1.036-1.035.777-1.294-.518-.778-1.554-1.036-2.071-2.071 0-.518-.259-1.036-.259-1.295-.518-11.91-.259-24.081-.259-35.991.777 0 2.071-.517 1.812-1.553-.259-.518-1.036-.518-1.294-1.035-1.812-5.956.259-11.911-.777-17.867-11.134-.776-22.009-3.366-32.625-6.214-2.071 1.554-4.401 3.107-6.732 4.402-1.036.259-1.812-1.554-2.848-1.035-.777.517-2.071 1.035-2.33 2.071 0 .259.777.517 1.036.776.259 0 .518 0 .518-.259v-1.036c.518.259 1.553-.258 1.553.259 0 1.295-1.812 2.071-2.848 1.554-.259 0-.518-.777-1.036-1.036-1.036-.518-2.071 0-3.107-.259-2.589-.519-5.179-1.554-7.768-2.848-.518-.259-.518-1.036-1.036-1.295-1.036-.518-2.071-.518-3.107-.776-.259 0-.518-.778-1.036-1.036h-1.036c-.518-.259-.777-1.035-1.036-1.035-1.813.259-2.848-.777-3.366-2.072-.259-.518-.518-1.295-1.036-1.553-.777 0-1.295 1.295-2.071 1.035-2.589-1.553-5.437-2.848-7.768-4.919v-.777c-.777-.777-1.813-.518-2.848-1.035-.777-.518-.259-2.331-1.294-2.848-.777-.259-1.295 1.035-2.071.517-.518-.517-1.554-.777-1.554-1.553-.259-2.071-.777-3.883 0-5.955 0-.259-.518-.518-.777-.778.777-.777 2.072-.777 1.813-1.812 0-.518-1.813 0-2.071-1.036 0-.777 0-1.812-.518-2.071-6.215-5.178-12.17-9.839-17.866-15.276-4.661 1.035-9.322 1.295-13.982 1.295-.518.259-.518-.777-.777-1.295-5.438-5.179-9.839-10.616-14.5-16.83 0-.259.518-.777.259-1.295.259.259.259.517.259.777.518.777 1.553 0 1.813-.518.259-.777-.777-1.295-1.295-1.813-.518 0-1.036.518-1.553.518-.777-.518-1.554-.777-1.812-1.295-2.589-3.107-5.178-6.214-6.214-9.839-.259-.518-1.295-1.035-1.554-1.554-.259-.517.259-1.035 0-1.553-.518-.777-1.812-1.036-1.812-2.071.259.259.259.517.518.517.777 0 1.036-1.036.777-1.553-1.036-1.812 1.036-4.143 1.812-5.697.259-.517-.259-.777-.259-1.035 1.036-1.813 1.295-3.625 2.33-5.438-1.554-3.883-4.402-7.25-4.919-11.392 0-.259.518-.777.518-1.036-1.294-.777-1.812-2.071-2.33-3.107-1.813-3.366-2.848-7.25-3.884-10.875.518 0 1.036-.259 1.036-.518-.259-1.036.518-2.33-.777-2.589-.518 0-.518.777-.777 1.036-.518-.518-.777-1.295-.777-2.072.259-.776 1.036-.518 1.812-1.036 1.295-.518.259-2.589-.776-3.366-.777-.518-1.554-.259-2.331 0 0-2.33-2.071-4.661-.259-6.473-.518-.259-.777-1.036-1.295-1.036.777-1.036.259-3.107-1.036-4.143 0-.259-.259-.777-.259-1.295 1.036 0 .777-.777 1.036-1.294.259-1.036-1.295-1.036-1.295-1.554-.518-2.33-1.553-4.661-.777-6.991.259.777-.777 1.812.259 2.33.259 0 .777 0 .777-.259.259-1.813.259-3.625-1.553-4.402.518 0 1.294 0 1.036-.518-.259-1.553-1.036-2.848-1.295-4.143-1.812-9.321-1.553-18.125-.259-27.187.259-.777 1.812-1.813 3.107-2.331-.777-1.553-1.812.259-3.107.259.777-10.357 2.848-19.937 4.919-30.295.518-2.589 3.884-2.33 4.402-4.143.259-1.294-2.071-.518-3.108.259-.259-.518.518-.777.259-1.295.518 0 .777.518 1.295.259.259 0 .518-.259.259-.518-.518-.518-.776-1.295-.518-1.554 4.402-18.384 12.687-33.401 23.821-49.454 15.276-22.009 32.883-38.839 55.928-51.526.259 0 .259.777.777.518s.777-1.036.777-1.553c.259-.518 1.295-.259 1.812-.259.259 0 .259-.518.259-.777 3.625-2.331 7.25-3.625 10.875-5.697-4.143 3.366-9.063 5.179-13.464 8.545-3.884 3.107-7.25 5.955-11.652 8.544-.518.518-1.553 1.036-2.589 1.295-.518 0-1.295 1.036-.518 1.813-.518 0-1.036-.259-1.295 0-.518.518-.518 1.553-1.036 2.071-6.732 6.473-12.687 12.946-18.902 19.937 0 .259-1.295-1.036-1.295 0-.259 1.553 0 4.143-2.071 3.884-1.036-.259-2.589 0-2.33 1.036 0 .518 1.036 0 1.812.259-1.812 3.884-4.143 7.509-6.991 10.616-.518.777-2.589.259-3.884.259-.259 0-.259.259-.259.518.777 1.295 3.884 2.848 1.553 4.401-.518 0-1.036 0-1.295.518 0 .259-.259.777.259 1.036-.259.259-.518.259-.518.518 0 .518.259 1.036 0 1.295s-1.036 0-1.295 0c-.518.259-1.036.518-1.812.518-.777.259-.518 1.035-.777 1.553-.518.518-1.036 1.295-1.554 1.813 1.295.777 1.812-1.036 2.33-1.295s1.294-.777 2.071-.518c-1.036 1.813-1.813 3.884-2.848 5.956-.518.518-1.554.259-1.295 1.294 0 .259.518.518.518.518-2.071 4.92-3.625 9.839-5.437 14.759-.259.518-1.554.259-1.813 1.036 0 .518.777 1.036.518 1.553-1.036 5.697-2.33 10.875-3.625 16.83-1.812 9.58-.777 18.384-3.107 27.964 0 .777-2.071 1.554-3.107 2.589.518.259 1.295.518 2.071.518.777 0 1.295-1.036 2.071-1.294 0 1.294.259 2.589-1.036 3.625-.259.259 1.295.776 1.036 1.036-.777.518-2.071.259-2.33.776-.518.518-.777 1.813 0 2.071.777.518 1.812.259 2.589.777.259.259 0 .777 0 1.295-.518-.518-1.295-.777-2.071-1.036-.259 0-.259.777-.259 1.036.518 1.036 1.295 1.553 2.589 1.553-.259 0-.777-.259-1.036.259-.259 1.036 1.036 1.554 1.036 2.33 1.295 7.768 2.589 15.018 4.143 22.267-.259 0-.777 0-.777.259 1.036 1.812 2.589 3.625 1.036 5.697.777.518 1.554 1.036 1.554 1.812.259 1.036-.518 2.071-.259 3.107.259.777 1.295 0 1.295 0 1.294 1.813 1.812 3.884 2.33 5.955.259.259-.518.518-.776 1.036v.777c-.518 0-.518.518-.777.777 0 .777 1.295.777 1.813.518.518 0 0 .777.259 1.036.518.518 1.295.777 1.554 1.295.777.777-.518 2.071-.777 2.848-.259 1.554 1.553 4.143 3.625 3.107 1.812 3.107 3.107 6.473 5.178 9.58.259.518.259 1.554.518 2.071.52.778 1.297 1.296 1.815 2.331z"/>
	<path d="m598.24 262.95c2.257 1.419 4.401 2.589 6.473 4.402 0 .259-.259 1.036-.259 1.554-3.366-1.036-5.697-3.367-8.545-5.438-8.545-5.696-16.053-10.875-24.598-15.276 9.581 3.884 17.867 9.062 26.929 14.758z"/>
</g><g transform="matrix(2.3506 0 0 2.3506 -490.99 -489.82)" fill="#c6cd28" filter="url(#filter93)" stroke="#c6cd28" stroke-width="9.0757" style="mix-blend-mode:normal">
	<path d="m366.5 468.02c1.192 2.385 2.848 4.401 3.366 7.25.259 1.035 2.071 1.812 3.107 2.848 2.331 2.071 4.143 4.401 5.438 6.991.777 1.812 1.295 3.883 3.625 4.401.777 0 .777 1.295 1.295 1.553 3.884 3.625 7.25 7.51 11.392 11.134.259.259-.259 1.036 0 1.296 3.107 2.071 5.956 3.625 8.545 6.214.518.517 0 1.553.777 1.812.518 0 1.295-.259 1.812 0 3.884 2.848 7.509 5.179 11.393 8.286.518.259.518 1.295.777 2.331.259.259.518.517.777.777 1.553.518 3.366-.259 4.66.518 5.179 2.33 9.839 5.178 15.277 7.25.777.518 1.036 1.553 1.812 2.071.259 0 .518.518 1.036.259.259 1.295-.518 2.848 1.036 3.366 1.812.518 4.143.259 5.438-.518 1.553-.777 2.848-.258 4.143.259 2.848.777 5.697 1.295 8.286 2.331.777.259 1.554 1.295 2.848 1.295.259 0 .518.777.777.777 1.036-.259 1.813-.777 2.848-.777 3.366.517 6.214 1.553 9.58 1.812-.259 0-.259.259-.259.517-.259.259-.777-.517-1.295-.258-.259 0-.518.258-.259.517.777.777 1.812 2.071 2.848 1.295-.518.259-.776 1.036-.259 1.294 1.036 0 1.036 0 1.812.778.518.259 1.036 0 1.295-.518.259-1.036-.518-1.553-1.295-1.812.259 0-.259-.777.259-.518.518.518 1.036 1.553 1.812.777-.518-.259-.259-1.035-.777-1.295.259.259.777.777 1.035.518.518-.778 1.554-.259 1.813-.778.518-5.178-.518-10.357.777-15.535 0-1.036-1.294-2.33-.259-3.107.776-.259 1.294-.518 1.812-.777 1.295-.777 2.848.259 4.402-.517 0 0 .259.517.518.517.518.259 1.295-.259 1.036-.517-1.553-1.813-4.402-1.813-6.991-2.071-.259-.259-1.035-.259-1.035-.777.259-7.768-.777-15.536 0-23.562.259-6.215 2.071-11.911 3.625-17.867.518-1.553 1.813-2.33 2.848-3.625.259-.259-1.036-.777-.777-1.553 0-.777.259.777.777.259 1.036-.777.259-2.071.777-2.848.518-.518 2.071.259 2.071-.777 0-.777-1.036-1.295-2.071-1.036.259-.518 1.036-.518 1.295-1.036s-.518-1.036-.518-1.295c1.812-7.509 5.697-13.723 8.545-20.455 5.956 11.651 10.875 23.821 14.241 36.508-.518 0-1.295-.259-1.553.259-.259.777 0 1.812 1.035 1.812.518 0 .259-.777.777-.777.259 0 .259.518.259.777-.777-.259-1.295.777-1.036 1.295.518.777.777.777 1.553.259-1.035.777.777 2.071.518 3.107h-1.295c-.777.258 0 1.035 0 1.294.259.518 1.553.518 1.813 1.295 1.553 7.768 1.295 15.017.518 22.527-.259 2.589-1.554 4.919-2.071 7.768 0 .259.259.518.517.518.518 0 1.036-.259 1.295 0 .518 1.035-.777 1.812-.777 2.33.259 1.553.777 3.107.777 4.919 0 .259.518.259.518.518v10.875c-.259-.259-.518-.259-.777-.259-.259.259-.777.517-.518 1.035.259.777 1.036.517 1.553.517 3.107.778 6.214-1.035 9.322-.258.777.258 1.553.258 2.33-.259v-.518c1.295-.777 3.107-1.036 4.401-.259.26 0-.517 1.294-.258 1.813.776.777.517 1.295.517 2.071.259.258 1.295 1.035 1.553.258.518-1.812 0-4.142 1.553-5.177.777-.519 1.813-.519 2.848-.519.519 0 .519-.776.777-1.035 4.662-1.553 9.322-2.589 13.724-4.402.259.777.259 1.814 1.035 2.071.518 0 1.036.259 1.553-.258-1.294-.778 0-1.296 0-2.331 0-.259-.259-.259-.517-.259 2.589-1.035 4.919-2.589 7.768-2.848h1.295c.518-.518 1.553-.518 1.295-1.553.777.259 1.035 1.035 1.812 1.035.259-.259.518-.517.518-1.035 1.035-.259 1.813-.777 2.33-1.553 1.295-2.071 4.143-1.813 6.214-3.366v-.777c1.036-.777 2.331-1.295 3.367-2.071.259 0 .776.518 1.295.259 0 .777-.777 1.553-.519 1.553 1.813 1.554 1.295-2.071 2.331-2.848h.777c.518-.259.518-.777.518-1.295 1.036-1.294 2.589-2.071 4.142-3.107 1.036-.518 2.331 0 3.367-.777.777-.518.518-1.553 1.295-2.071 2.589-1.036 4.143-3.884 6.731-5.438h.778c.777-.777 1.812-1.035 2.33-1.553 1.813-1.296 3.625-2.589 4.401-4.661 1.295-3.107 4.661-4.661 6.732-7.509.777-.518 2.071-.777 2.071-1.553.777-2.589 2.589-4.402 4.401-6.214.259-.259.777 0 1.296 0 .259 0 .259-.518.517-.518 1.295-.259 2.589.777 3.883.518.259 0 .519-.259.259-.518-1.036-.777-1.812-2.071-1.812-3.107-.259-1.295.776-2.071 1.295-3.366 1.035-2.33 2.848-4.143 4.401-6.473.519-1.035 1.554 0 1.814-.777v-.777c1.553-1.036 1.553-2.848 2.071-4.661.517-2.33 2.848-3.366 4.66-5.178.259-.518-.777-1.036-.518-1.553 1.036-2.072 2.589-3.884 2.849-6.215 0-1.036 1.294-1.812 2.071-2.848.259-.518-.259-1.295-.259-2.071.518 0 1.553 0 1.553-.518 0-1.813.518-3.107 1.813-4.661.259-.518-.259-1.036-.259-1.553.259-.777 1.295-1.295 1.553-2.071 0-1.295.259-2.331 1.035-3.366v-1.295c0-3.884 2.849-7.509 2.849-11.393 0-.518-.259-1.554.259-1.812.777-.777 2.071-1.554 2.071-2.589.259-.518-.777-1.294-.777-2.071 0-.518.518-1.294.259-1.554-.259-1.294.518-2.589.777-3.884.777.259 1.813.518 2.59.259 1.294-.518 1.035-1.554 0-2.33-1.037-.518-1.814.259-2.849.259 0-.518-.259-1.295 0-1.812.777-.518.777.518 1.295 1.036.259 0 .517 0 .517-.259-.259-.777-1.294-1.812-1.294-2.071.517-12.687 1.294-25.116 0-37.803-.259-.518 1.294-.777 1.035-1.812-.259-.518-1.035-.518-1.295-1.036 0-.518.518-1.036.259-1.554s-1.036-.518-1.036-1.036c0-3.884-1.812-7.509-1.812-11.392.517 0 0 .776.517.776 1.813 0 2.071-2.33 3.625-3.366.259-.259 0-.517-.259-.517-1.035 0-1.812.517-2.589 1.553-.517.259-1.294-.518-2.071-.259-1.553-6.732-3.625-13.723-6.214-20.196 1.554-1.553 0-3.107-.259-4.92 0-.777-1.295-.518-1.553-1.036-.518-1.036-1.036-2.071-1.553-3.366-.259-1.295-1.295-2.589-2.071-4.143-.518-1.036 0-2.071-.259-3.107-.518-.777-1.553-1.294-1.553-1.812-.259-1.554-.518-2.33-1.295-3.625-.518-1.035-.777-3.107-1.812-3.107-1.554-.259-1.554-1.554-2.849-2.331-1.553-.777-1.036-3.366-2.33-4.919-.259-.259-1.035.259-1.295 0-4.143-5.438-7.768-10.357-11.91-15.795-.518-.518 0-1.553-.259-2.071-1.035-1.813-3.366-2.33-5.178-3.625-.777-.777 0-1.812-1.036-2.33-1.812-.518-3.883-1.812-4.401-3.625-.259-.518.777-1.035 1.295-.777 1.035.518.777 2.071 1.812 2.589.518 0 1.295 0 1.813.259 6.992 5.437 12.946 10.616 18.383 17.607.519.518.777 1.295 1.296 1.812h.776c1.554 1.294 2.849 2.848 3.367 4.66h.777c5.696 6.991 11.392 13.464 15.018 21.491.259.518.777.518 1.035.777 3.107 5.178 5.696 10.098 8.286 15.277.258.518-.259 1.035 0 1.553 1.035 1.812 1.553 3.884 2.329 5.955.259.259.777.259 1.036.518.518.777.777 1.553 1.035 2.33.519 1.036-.776 2.848 0 3.107 1.554.518 2.331 2.589 2.071 3.884 0 .518-1.295.259-1.812 1.036-.259.777 0 1.554.777 1.554s1.812-.777 1.812-.777c2.071 4.142 3.108 8.544 3.626 13.205-1.554 0-1.035 1.553-1.035 2.589 0 .259.259.259.517.259.518-.259.518-.777.518-1.295-.259-.518.259.259.517 0 .259 1.295.777 2.33.777 3.625-.259 0-.518 0-.518.259 0 .518.259.776.777 1.035.259.259-.259 1.036.259 1.295h.518c.259 2.589.777 4.92 1.035 7.25 0 .259-.518.259-.518.518-.259 1.036.777 1.553.259 2.589 0 .259.777 0 .777.518s-.259.777-.518 1.036l.518.518c.259.777-.777 1.295-.518 1.812 1.294 1.295.777 2.848 1.294 4.402 0 .259-1.035.518-1.035.777 0 .777 1.295 1.036 1.554 1.813.777 6.473.517 12.687 1.035 18.902.259 8.027-.518 15.794-2.33 24.08 0 .518-.518.777-.777 1.295s.259 1.294.517 2.071c0 1.812-1.035 3.625-1.294 5.437 0 .777-.777 1.295-1.295 2.071-.519.777.259 2.071.259 2.589-.259 4.143-1.813 8.027-3.107 12.169-.259.518-.777.777-1.036 1.295-.518 1.812-1.035 3.625-1.554 5.697-1.035 3.883-2.33 7.768-4.66 11.134-.777 1.295-1.295 2.589-1.812 4.143-.259 1.295-1.295 2.589-1.295 3.625.777 4.661 3.366 8.544 4.661 13.206-3.107 3.624-4.143 8.544-8.286 11.651v1.036c-.777 1.035-1.813 1.553-2.589 2.589-1.035 1.812-1.553 3.883-3.107 5.437-1.295.777-2.848 1.294-3.366 2.589-1.036 2.331-2.071 4.402-4.402 5.696-.259 0 .259 1.036.259 1.295-2.071 2.331-3.884 4.402-6.214 6.474-4.401-.259-8.804-.259-13.206-1.295-3.625 2.848-6.731 6.214-10.357 9.062-2.589 2.071-5.955 3.366-7.508 6.214-1.554 2.589-.259 6.214-1.554 9.322 0 .259-.777.777-.777 1.035-.259.518 1.036 0 1.036.777-.259.259-.777-.259-1.295-.259-.259 0-.259.518-.259.777s.259.259.517.259c-.517 1.813-2.589 2.331-4.143 2.849-.517 0-.777.777-1.295 1.553-.259.518-1.294 1.035-2.071 1.553-.517.518-1.035 0-1.553 0-.777.259-.777 1.295-1.554 1.813-4.66 2.848-8.803 5.438-13.722 7.25-.259.258-.777 0-1.036 0s-.259.517-.518.517c-1.035 0-2.33 0-3.107-1.295-.259-.518-.518.518-1.036.778 0 .258 0 .776-.259.776-1.035 0-1.813.518-2.071 1.295-.259.517.518.517.777.777-1.812-.259-3.107.776-4.401 1.812-1.553 1.295-3.625 2.331-5.437 1.554-3.625-1.814-7.25-4.143-10.616-6.733-10.616 2.848-21.492 5.438-32.625 6.214-.777 6.992.518 13.983-.517 20.973-.259 1.295-.518 2.848-1.554 4.143.26.259.26.777.777.518.259-.259.518-.518.518-1.036h.518c-1.295 1.036-.259 2.071 0 3.366-.518 0-.777.518-1.295.777-.518.519 0 1.036.518 1.553h-.518c-.259 0-.518.259-.259.518.517.518 1.295.777 1.553 1.553.259 1.036 0 2.331-.259 3.366-.259 1.554.517 3.107 0 4.662 0 .517-.778.777-.518 1.294 1.553 6.991.777 13.464.518 20.197 0 .517-1.036 1.035-1.295 1.812-.26 1.036 1.035 1.295 1.295 2.071.777 2.848.259 5.956.259 8.804-.259 2.589-1.036 4.919-2.071 7.509 0 0 .259.259.518.517-.518 0-1.295.519-1.295.777.259 1.036 1.295 1.295 2.071.519 0 1.553.259 3.107-.777 4.401-.26.259-1.813-.259-1.813.777-.259.518.518 1.036 1.295.777.259 7.25-2.071 14.241-2.33 21.491 0 1.036-1.295 1.295-1.554 2.331 0 .259.777.517.777.777-.259 1.295-.777 2.331-.517 3.625-.777 0-1.295.259-1.554.777-.259.517.518.517.518.776 0 .518-.777.518-.777 1.036-.259 1.036.518 2.331.518 3.108-1.553 11.652-5.179 22.526-7.768 33.66 0-.518-.778 0-.778-.518-.518.518-.777 1.295 0 1.814h.518c-.777 2.329-1.553 4.66-1.812 6.991-.777-.777 0-1.813-.259-2.848-.259-.519-.777-.519-1.036-1.036-3.107-12.428-6.214-24.339-8.804-36.509 1.036 0 1.036-.777 1.554-1.294v-.778c-.259-.777-1.554-.777-1.812-1.294-.259-.778-.259-1.554-.777-2.331-1.553-3.624-1.553-7.509-1.812-11.134.259 0 .518 0 .518-.259 0-2.071.518-4.143-.518-6.214-1.036-1.813-1.553-3.625-1.812-5.438 1.036.259 2.071-.259 1.553-1.295-.518-.518-1.553-.777-1.812-1.553-2.071-9.839-2.848-18.902-1.812-28.482 0-1.035 1.035-2.071 1.812-3.107 0-.259.259-.777-.259-1.036.777.259 1.036-1.035.777-1.294-.518-.778-1.554-1.036-2.071-2.071 0-.518-.259-1.036-.259-1.295-.518-11.91-.259-24.081-.259-35.991.777 0 2.071-.517 1.812-1.553-.259-.518-1.036-.518-1.294-1.035-1.812-5.956.259-11.911-.777-17.867-11.134-.776-22.009-3.366-32.625-6.214-2.071 1.554-4.401 3.107-6.732 4.402-1.036.259-1.812-1.554-2.848-1.035-.777.517-2.071 1.035-2.33 2.071 0 .259.777.517 1.036.776.259 0 .518 0 .518-.259v-1.036c.518.259 1.553-.258 1.553.259 0 1.295-1.812 2.071-2.848 1.554-.259 0-.518-.777-1.036-1.036-1.036-.518-2.071 0-3.107-.259-2.589-.519-5.179-1.554-7.768-2.848-.518-.259-.518-1.036-1.036-1.295-1.036-.518-2.071-.518-3.107-.776-.259 0-.518-.778-1.036-1.036h-1.036c-.518-.259-.777-1.035-1.036-1.035-1.813.259-2.848-.777-3.366-2.072-.259-.518-.518-1.295-1.036-1.553-.777 0-1.295 1.295-2.071 1.035-2.589-1.553-5.437-2.848-7.768-4.919v-.777c-.777-.777-1.813-.518-2.848-1.035-.777-.518-.259-2.331-1.294-2.848-.777-.259-1.295 1.035-2.071.517-.518-.517-1.554-.777-1.554-1.553-.259-2.071-.777-3.883 0-5.955 0-.259-.518-.518-.777-.778.777-.777 2.072-.777 1.813-1.812 0-.518-1.813 0-2.071-1.036 0-.777 0-1.812-.518-2.071-6.215-5.178-12.17-9.839-17.866-15.276-4.661 1.035-9.322 1.295-13.982 1.295-.518.259-.518-.777-.777-1.295-5.438-5.179-9.839-10.616-14.5-16.83 0-.259.518-.777.259-1.295.259.259.259.517.259.777.518.777 1.553 0 1.813-.518.259-.777-.777-1.295-1.295-1.813-.518 0-1.036.518-1.553.518-.777-.518-1.554-.777-1.812-1.295-2.589-3.107-5.178-6.214-6.214-9.839-.259-.518-1.295-1.035-1.554-1.554-.259-.517.259-1.035 0-1.553-.518-.777-1.812-1.036-1.812-2.071.259.259.259.517.518.517.777 0 1.036-1.036.777-1.553-1.036-1.812 1.036-4.143 1.812-5.697.259-.517-.259-.777-.259-1.035 1.036-1.813 1.295-3.625 2.33-5.438-1.554-3.883-4.402-7.25-4.919-11.392 0-.259.518-.777.518-1.036-1.294-.777-1.812-2.071-2.33-3.107-1.813-3.366-2.848-7.25-3.884-10.875.518 0 1.036-.259 1.036-.518-.259-1.036.518-2.33-.777-2.589-.518 0-.518.777-.777 1.036-.518-.518-.777-1.295-.777-2.072.259-.776 1.036-.518 1.812-1.036 1.295-.518.259-2.589-.776-3.366-.777-.518-1.554-.259-2.331 0 0-2.33-2.071-4.661-.259-6.473-.518-.259-.777-1.036-1.295-1.036.777-1.036.259-3.107-1.036-4.143 0-.259-.259-.777-.259-1.295 1.036 0 .777-.777 1.036-1.294.259-1.036-1.295-1.036-1.295-1.554-.518-2.33-1.553-4.661-.777-6.991.259.777-.777 1.812.259 2.33.259 0 .777 0 .777-.259.259-1.813.259-3.625-1.553-4.402.518 0 1.294 0 1.036-.518-.259-1.553-1.036-2.848-1.295-4.143-1.812-9.321-1.553-18.125-.259-27.187.259-.777 1.812-1.813 3.107-2.331-.777-1.553-1.812.259-3.107.259.777-10.357 2.848-19.937 4.919-30.295.518-2.589 3.884-2.33 4.402-4.143.259-1.294-2.071-.518-3.108.259-.259-.518.518-.777.259-1.295.518 0 .777.518 1.295.259.259 0 .518-.259.259-.518-.518-.518-.776-1.295-.518-1.554 4.402-18.384 12.687-33.401 23.821-49.454 15.276-22.009 32.883-38.839 55.928-51.526.259 0 .259.777.777.518s.777-1.036.777-1.553c.259-.518 1.295-.259 1.812-.259.259 0 .259-.518.259-.777 3.625-2.331 7.25-3.625 10.875-5.697-4.143 3.366-9.063 5.179-13.464 8.545-3.884 3.107-7.25 5.955-11.652 8.544-.518.518-1.553 1.036-2.589 1.295-.518 0-1.295 1.036-.518 1.813-.518 0-1.036-.259-1.295 0-.518.518-.518 1.553-1.036 2.071-6.732 6.473-12.687 12.946-18.902 19.937 0 .259-1.295-1.036-1.295 0-.259 1.553 0 4.143-2.071 3.884-1.036-.259-2.589 0-2.33 1.036 0 .518 1.036 0 1.812.259-1.812 3.884-4.143 7.509-6.991 10.616-.518.777-2.589.259-3.884.259-.259 0-.259.259-.259.518.777 1.295 3.884 2.848 1.553 4.401-.518 0-1.036 0-1.295.518 0 .259-.259.777.259 1.036-.259.259-.518.259-.518.518 0 .518.259 1.036 0 1.295s-1.036 0-1.295 0c-.518.259-1.036.518-1.812.518-.777.259-.518 1.035-.777 1.553-.518.518-1.036 1.295-1.554 1.813 1.295.777 1.812-1.036 2.33-1.295s1.294-.777 2.071-.518c-1.036 1.813-1.813 3.884-2.848 5.956-.518.518-1.554.259-1.295 1.294 0 .259.518.518.518.518-2.071 4.92-3.625 9.839-5.437 14.759-.259.518-1.554.259-1.813 1.036 0 .518.777 1.036.518 1.553-1.036 5.697-2.33 10.875-3.625 16.83-1.812 9.58-.777 18.384-3.107 27.964 0 .777-2.071 1.554-3.107 2.589.518.259 1.295.518 2.071.518.777 0 1.295-1.036 2.071-1.294 0 1.294.259 2.589-1.036 3.625-.259.259 1.295.776 1.036 1.036-.777.518-2.071.259-2.33.776-.518.518-.777 1.813 0 2.071.777.518 1.812.259 2.589.777.259.259 0 .777 0 1.295-.518-.518-1.295-.777-2.071-1.036-.259 0-.259.777-.259 1.036.518 1.036 1.295 1.553 2.589 1.553-.259 0-.777-.259-1.036.259-.259 1.036 1.036 1.554 1.036 2.33 1.295 7.768 2.589 15.018 4.143 22.267-.259 0-.777 0-.777.259 1.036 1.812 2.589 3.625 1.036 5.697.777.518 1.554 1.036 1.554 1.812.259 1.036-.518 2.071-.259 3.107.259.777 1.295 0 1.295 0 1.294 1.813 1.812 3.884 2.33 5.955.259.259-.518.518-.776 1.036v.777c-.518 0-.518.518-.777.777 0 .777 1.295.777 1.813.518.518 0 0 .777.259 1.036.518.518 1.295.777 1.554 1.295.777.777-.518 2.071-.777 2.848-.259 1.554 1.553 4.143 3.625 3.107 1.812 3.107 3.107 6.473 5.178 9.58.259.518.259 1.554.518 2.071.52.778 1.297 1.296 1.815 2.331z"/>
	<path d="m598.24 262.95c2.257 1.419 4.401 2.589 6.473 4.402 0 .259-.259 1.036-.259 1.554-3.366-1.036-5.697-3.367-8.545-5.438-8.545-5.696-16.053-10.875-24.598-15.276 9.581 3.884 17.867 9.062 26.929 14.758z"/>
</g><g transform="matrix(2.3506 0 0 2.3506 -491 -492.52)">
	<path d="m366.5 468.02c1.192 2.385 2.848 4.401 3.366 7.25.259 1.035 2.071 1.812 3.107 2.848 2.331 2.071 4.143 4.401 5.438 6.991.777 1.812 1.295 3.883 3.625 4.401.777 0 .777 1.295 1.295 1.553 3.884 3.625 7.25 7.51 11.392 11.134.259.259-.259 1.036 0 1.296 3.107 2.071 5.956 3.625 8.545 6.214.518.517 0 1.553.777 1.812.518 0 1.295-.259 1.812 0 3.884 2.848 7.509 5.179 11.393 8.286.518.259.518 1.295.777 2.331.259.259.518.517.777.777 1.553.518 3.366-.259 4.66.518 5.179 2.33 9.839 5.178 15.277 7.25.777.518 1.036 1.553 1.812 2.071.259 0 .518.518 1.036.259.259 1.295-.518 2.848 1.036 3.366 1.812.518 4.143.259 5.438-.518 1.553-.777 2.848-.258 4.143.259 2.848.777 5.697 1.295 8.286 2.331.777.259 1.554 1.295 2.848 1.295.259 0 .518.777.777.777 1.036-.259 1.813-.777 2.848-.777 3.366.517 6.214 1.553 9.58 1.812-.259 0-.259.259-.259.517-.259.259-.777-.517-1.295-.258-.259 0-.518.258-.259.517.777.777 1.812 2.071 2.848 1.295-.518.259-.776 1.036-.259 1.294 1.036 0 1.036 0 1.812.778.518.259 1.036 0 1.295-.518.259-1.036-.518-1.553-1.295-1.812.259 0-.259-.777.259-.518.518.518 1.036 1.553 1.812.777-.518-.259-.259-1.035-.777-1.295.259.259.777.777 1.035.518.518-.778 1.554-.259 1.813-.778.518-5.178-.518-10.357.777-15.535 0-1.036-1.294-2.33-.259-3.107.776-.259 1.294-.518 1.812-.777 1.295-.777 2.848.259 4.402-.517 0 0 .259.517.518.517.518.259 1.295-.259 1.036-.517-1.553-1.813-4.402-1.813-6.991-2.071-.259-.259-1.035-.259-1.035-.777.259-7.768-.777-15.536 0-23.562.259-6.215 2.071-11.911 3.625-17.867.518-1.553 1.813-2.33 2.848-3.625.259-.259-1.036-.777-.777-1.553 0-.777.259.777.777.259 1.036-.777.259-2.071.777-2.848.518-.518 2.071.259 2.071-.777 0-.777-1.036-1.295-2.071-1.036.259-.518 1.036-.518 1.295-1.036s-.518-1.036-.518-1.295c1.812-7.509 5.697-13.723 8.545-20.455 5.956 11.651 10.875 23.821 14.241 36.508-.518 0-1.295-.259-1.553.259-.259.777 0 1.812 1.035 1.812.518 0 .259-.777.777-.777.259 0 .259.518.259.777-.777-.259-1.295.777-1.036 1.295.518.777.777.777 1.553.259-1.035.777.777 2.071.518 3.107h-1.295c-.777.258 0 1.035 0 1.294.259.518 1.553.518 1.813 1.295 1.553 7.768 1.295 15.017.518 22.527-.259 2.589-1.554 4.919-2.071 7.768 0 .259.259.518.517.518.518 0 1.036-.259 1.295 0 .518 1.035-.777 1.812-.777 2.33.259 1.553.777 3.107.777 4.919 0 .259.518.259.518.518v10.875c-.259-.259-.518-.259-.777-.259-.259.259-.777.517-.518 1.035.259.777 1.036.517 1.553.517 3.107.778 6.214-1.035 9.322-.258.777.258 1.553.258 2.33-.259v-.518c1.295-.777 3.107-1.036 4.401-.259.26 0-.517 1.294-.258 1.813.776.777.517 1.295.517 2.071.259.258 1.295 1.035 1.553.258.518-1.812 0-4.142 1.553-5.177.777-.519 1.813-.519 2.848-.519.519 0 .519-.776.777-1.035 4.662-1.553 9.322-2.589 13.724-4.402.259.777.259 1.814 1.035 2.071.518 0 1.036.259 1.553-.258-1.294-.778 0-1.296 0-2.331 0-.259-.259-.259-.517-.259 2.589-1.035 4.919-2.589 7.768-2.848h1.295c.518-.518 1.553-.518 1.295-1.553.777.259 1.035 1.035 1.812 1.035.259-.259.518-.517.518-1.035 1.035-.259 1.813-.777 2.33-1.553 1.295-2.071 4.143-1.813 6.214-3.366v-.777c1.036-.777 2.331-1.295 3.367-2.071.259 0 .776.518 1.295.259 0 .777-.777 1.553-.519 1.553 1.813 1.554 1.295-2.071 2.331-2.848h.777c.518-.259.518-.777.518-1.295 1.036-1.294 2.589-2.071 4.142-3.107 1.036-.518 2.331 0 3.367-.777.777-.518.518-1.553 1.295-2.071 2.589-1.036 4.143-3.884 6.731-5.438h.778c.777-.777 1.812-1.035 2.33-1.553 1.813-1.296 3.625-2.589 4.401-4.661 1.295-3.107 4.661-4.661 6.732-7.509.777-.518 2.071-.777 2.071-1.553.777-2.589 2.589-4.402 4.401-6.214.259-.259.777 0 1.296 0 .259 0 .259-.518.517-.518 1.295-.259 2.589.777 3.883.518.259 0 .519-.259.259-.518-1.036-.777-1.812-2.071-1.812-3.107-.259-1.295.776-2.071 1.295-3.366 1.035-2.33 2.848-4.143 4.401-6.473.519-1.035 1.554 0 1.814-.777v-.777c1.553-1.036 1.553-2.848 2.071-4.661.517-2.33 2.848-3.366 4.66-5.178.259-.518-.777-1.036-.518-1.553 1.036-2.072 2.589-3.884 2.849-6.215 0-1.036 1.294-1.812 2.071-2.848.259-.518-.259-1.295-.259-2.071.518 0 1.553 0 1.553-.518 0-1.813.518-3.107 1.813-4.661.259-.518-.259-1.036-.259-1.553.259-.777 1.295-1.295 1.553-2.071 0-1.295.259-2.331 1.035-3.366v-1.295c0-3.884 2.849-7.509 2.849-11.393 0-.518-.259-1.554.259-1.812.777-.777 2.071-1.554 2.071-2.589.259-.518-.777-1.294-.777-2.071 0-.518.518-1.294.259-1.554-.259-1.294.518-2.589.777-3.884.777.259 1.813.518 2.59.259 1.294-.518 1.035-1.554 0-2.33-1.037-.518-1.814.259-2.849.259 0-.518-.259-1.295 0-1.812.777-.518.777.518 1.295 1.036.259 0 .517 0 .517-.259-.259-.777-1.294-1.812-1.294-2.071.517-12.687 1.294-25.116 0-37.803-.259-.518 1.294-.777 1.035-1.812-.259-.518-1.035-.518-1.295-1.036 0-.518.518-1.036.259-1.554s-1.036-.518-1.036-1.036c0-3.884-1.812-7.509-1.812-11.392.517 0 0 .776.517.776 1.813 0 2.071-2.33 3.625-3.366.259-.259 0-.517-.259-.517-1.035 0-1.812.517-2.589 1.553-.517.259-1.294-.518-2.071-.259-1.553-6.732-3.625-13.723-6.214-20.196 1.554-1.553 0-3.107-.259-4.92 0-.777-1.295-.518-1.553-1.036-.518-1.036-1.036-2.071-1.553-3.366-.259-1.295-1.295-2.589-2.071-4.143-.518-1.036 0-2.071-.259-3.107-.518-.777-1.553-1.294-1.553-1.812-.259-1.554-.518-2.33-1.295-3.625-.518-1.035-.777-3.107-1.812-3.107-1.554-.259-1.554-1.554-2.849-2.331-1.553-.777-1.036-3.366-2.33-4.919-.259-.259-1.035.259-1.295 0-4.143-5.438-7.768-10.357-11.91-15.795-.518-.518 0-1.553-.259-2.071-1.035-1.813-3.366-2.33-5.178-3.625-.777-.777 0-1.812-1.036-2.33-1.812-.518-3.883-1.812-4.401-3.625-.259-.518.777-1.035 1.295-.777 1.035.518.777 2.071 1.812 2.589.518 0 1.295 0 1.813.259 6.992 5.437 12.946 10.616 18.383 17.607.519.518.777 1.295 1.296 1.812h.776c1.554 1.294 2.849 2.848 3.367 4.66h.777c5.696 6.991 11.392 13.464 15.018 21.491.259.518.777.518 1.035.777 3.107 5.178 5.696 10.098 8.286 15.277.258.518-.259 1.035 0 1.553 1.035 1.812 1.553 3.884 2.329 5.955.259.259.777.259 1.036.518.518.777.777 1.553 1.035 2.33.519 1.036-.776 2.848 0 3.107 1.554.518 2.331 2.589 2.071 3.884 0 .518-1.295.259-1.812 1.036-.259.777 0 1.554.777 1.554s1.812-.777 1.812-.777c2.071 4.142 3.108 8.544 3.626 13.205-1.554 0-1.035 1.553-1.035 2.589 0 .259.259.259.517.259.518-.259.518-.777.518-1.295-.259-.518.259.259.517 0 .259 1.295.777 2.33.777 3.625-.259 0-.518 0-.518.259 0 .518.259.776.777 1.035.259.259-.259 1.036.259 1.295h.518c.259 2.589.777 4.92 1.035 7.25 0 .259-.518.259-.518.518-.259 1.036.777 1.553.259 2.589 0 .259.777 0 .777.518s-.259.777-.518 1.036l.518.518c.259.777-.777 1.295-.518 1.812 1.294 1.295.777 2.848 1.294 4.402 0 .259-1.035.518-1.035.777 0 .777 1.295 1.036 1.554 1.813.777 6.473.517 12.687 1.035 18.902.259 8.027-.518 15.794-2.33 24.08 0 .518-.518.777-.777 1.295s.259 1.294.517 2.071c0 1.812-1.035 3.625-1.294 5.437 0 .777-.777 1.295-1.295 2.071-.519.777.259 2.071.259 2.589-.259 4.143-1.813 8.027-3.107 12.169-.259.518-.777.777-1.036 1.295-.518 1.812-1.035 3.625-1.554 5.697-1.035 3.883-2.33 7.768-4.66 11.134-.777 1.295-1.295 2.589-1.812 4.143-.259 1.295-1.295 2.589-1.295 3.625.777 4.661 3.366 8.544 4.661 13.206-3.107 3.624-4.143 8.544-8.286 11.651v1.036c-.777 1.035-1.813 1.553-2.589 2.589-1.035 1.812-1.553 3.883-3.107 5.437-1.295.777-2.848 1.294-3.366 2.589-1.036 2.331-2.071 4.402-4.402 5.696-.259 0 .259 1.036.259 1.295-2.071 2.331-3.884 4.402-6.214 6.474-4.401-.259-8.804-.259-13.206-1.295-3.625 2.848-6.731 6.214-10.357 9.062-2.589 2.071-5.955 3.366-7.508 6.214-1.554 2.589-.259 6.214-1.554 9.322 0 .259-.777.777-.777 1.035-.259.518 1.036 0 1.036.777-.259.259-.777-.259-1.295-.259-.259 0-.259.518-.259.777s.259.259.517.259c-.517 1.813-2.589 2.331-4.143 2.849-.517 0-.777.777-1.295 1.553-.259.518-1.294 1.035-2.071 1.553-.517.518-1.035 0-1.553 0-.777.259-.777 1.295-1.554 1.813-4.66 2.848-8.803 5.438-13.722 7.25-.259.258-.777 0-1.036 0s-.259.517-.518.517c-1.035 0-2.33 0-3.107-1.295-.259-.518-.518.518-1.036.778 0 .258 0 .776-.259.776-1.035 0-1.813.518-2.071 1.295-.259.517.518.517.777.777-1.812-.259-3.107.776-4.401 1.812-1.553 1.295-3.625 2.331-5.437 1.554-3.625-1.814-7.25-4.143-10.616-6.733-10.616 2.848-21.492 5.438-32.625 6.214-.777 6.992.518 13.983-.517 20.973-.259 1.295-.518 2.848-1.554 4.143.26.259.26.777.777.518.259-.259.518-.518.518-1.036h.518c-1.295 1.036-.259 2.071 0 3.366-.518 0-.777.518-1.295.777-.518.519 0 1.036.518 1.553h-.518c-.259 0-.518.259-.259.518.517.518 1.295.777 1.553 1.553.259 1.036 0 2.331-.259 3.366-.259 1.554.517 3.107 0 4.662 0 .517-.778.777-.518 1.294 1.553 6.991.777 13.464.518 20.197 0 .517-1.036 1.035-1.295 1.812-.26 1.036 1.035 1.295 1.295 2.071.777 2.848.259 5.956.259 8.804-.259 2.589-1.036 4.919-2.071 7.509 0 0 .259.259.518.517-.518 0-1.295.519-1.295.777.259 1.036 1.295 1.295 2.071.519 0 1.553.259 3.107-.777 4.401-.26.259-1.813-.259-1.813.777-.259.518.518 1.036 1.295.777.259 7.25-2.071 14.241-2.33 21.491 0 1.036-1.295 1.295-1.554 2.331 0 .259.777.517.777.777-.259 1.295-.777 2.331-.517 3.625-.777 0-1.295.259-1.554.777-.259.517.518.517.518.776 0 .518-.777.518-.777 1.036-.259 1.036.518 2.331.518 3.108-1.553 11.652-5.179 22.526-7.768 33.66 0-.518-.778 0-.778-.518-.518.518-.777 1.295 0 1.814h.518c-.777 2.329-1.553 4.66-1.812 6.991-.777-.777 0-1.813-.259-2.848-.259-.519-.777-.519-1.036-1.036-3.107-12.428-6.214-24.339-8.804-36.509 1.036 0 1.036-.777 1.554-1.294v-.778c-.259-.777-1.554-.777-1.812-1.294-.259-.778-.259-1.554-.777-2.331-1.553-3.624-1.553-7.509-1.812-11.134.259 0 .518 0 .518-.259 0-2.071.518-4.143-.518-6.214-1.036-1.813-1.553-3.625-1.812-5.438 1.036.259 2.071-.259 1.553-1.295-.518-.518-1.553-.777-1.812-1.553-2.071-9.839-2.848-18.902-1.812-28.482 0-1.035 1.035-2.071 1.812-3.107 0-.259.259-.777-.259-1.036.777.259 1.036-1.035.777-1.294-.518-.778-1.554-1.036-2.071-2.071 0-.518-.259-1.036-.259-1.295-.518-11.91-.259-24.081-.259-35.991.777 0 2.071-.517 1.812-1.553-.259-.518-1.036-.518-1.294-1.035-1.812-5.956.259-11.911-.777-17.867-11.134-.776-22.009-3.366-32.625-6.214-2.071 1.554-4.401 3.107-6.732 4.402-1.036.259-1.812-1.554-2.848-1.035-.777.517-2.071 1.035-2.33 2.071 0 .259.777.517 1.036.776.259 0 .518 0 .518-.259v-1.036c.518.259 1.553-.258 1.553.259 0 1.295-1.812 2.071-2.848 1.554-.259 0-.518-.777-1.036-1.036-1.036-.518-2.071 0-3.107-.259-2.589-.519-5.179-1.554-7.768-2.848-.518-.259-.518-1.036-1.036-1.295-1.036-.518-2.071-.518-3.107-.776-.259 0-.518-.778-1.036-1.036h-1.036c-.518-.259-.777-1.035-1.036-1.035-1.813.259-2.848-.777-3.366-2.072-.259-.518-.518-1.295-1.036-1.553-.777 0-1.295 1.295-2.071 1.035-2.589-1.553-5.437-2.848-7.768-4.919v-.777c-.777-.777-1.813-.518-2.848-1.035-.777-.518-.259-2.331-1.294-2.848-.777-.259-1.295 1.035-2.071.517-.518-.517-1.554-.777-1.554-1.553-.259-2.071-.777-3.883 0-5.955 0-.259-.518-.518-.777-.778.777-.777 2.072-.777 1.813-1.812 0-.518-1.813 0-2.071-1.036 0-.777 0-1.812-.518-2.071-6.215-5.178-12.17-9.839-17.866-15.276-4.661 1.035-9.322 1.295-13.982 1.295-.518.259-.518-.777-.777-1.295-5.438-5.179-9.839-10.616-14.5-16.83 0-.259.518-.777.259-1.295.259.259.259.517.259.777.518.777 1.553 0 1.813-.518.259-.777-.777-1.295-1.295-1.813-.518 0-1.036.518-1.553.518-.777-.518-1.554-.777-1.812-1.295-2.589-3.107-5.178-6.214-6.214-9.839-.259-.518-1.295-1.035-1.554-1.554-.259-.517.259-1.035 0-1.553-.518-.777-1.812-1.036-1.812-2.071.259.259.259.517.518.517.777 0 1.036-1.036.777-1.553-1.036-1.812 1.036-4.143 1.812-5.697.259-.517-.259-.777-.259-1.035 1.036-1.813 1.295-3.625 2.33-5.438-1.554-3.883-4.402-7.25-4.919-11.392 0-.259.518-.777.518-1.036-1.294-.777-1.812-2.071-2.33-3.107-1.813-3.366-2.848-7.25-3.884-10.875.518 0 1.036-.259 1.036-.518-.259-1.036.518-2.33-.777-2.589-.518 0-.518.777-.777 1.036-.518-.518-.777-1.295-.777-2.072.259-.776 1.036-.518 1.812-1.036 1.295-.518.259-2.589-.776-3.366-.777-.518-1.554-.259-2.331 0 0-2.33-2.071-4.661-.259-6.473-.518-.259-.777-1.036-1.295-1.036.777-1.036.259-3.107-1.036-4.143 0-.259-.259-.777-.259-1.295 1.036 0 .777-.777 1.036-1.294.259-1.036-1.295-1.036-1.295-1.554-.518-2.33-1.553-4.661-.777-6.991.259.777-.777 1.812.259 2.33.259 0 .777 0 .777-.259.259-1.813.259-3.625-1.553-4.402.518 0 1.294 0 1.036-.518-.259-1.553-1.036-2.848-1.295-4.143-1.812-9.321-1.553-18.125-.259-27.187.259-.777 1.812-1.813 3.107-2.331-.777-1.553-1.812.259-3.107.259.777-10.357 2.848-19.937 4.919-30.295.518-2.589 3.884-2.33 4.402-4.143.259-1.294-2.071-.518-3.108.259-.259-.518.518-.777.259-1.295.518 0 .777.518 1.295.259.259 0 .518-.259.259-.518-.518-.518-.776-1.295-.518-1.554 4.402-18.384 12.687-33.401 23.821-49.454 15.276-22.009 32.883-38.839 55.928-51.526.259 0 .259.777.777.518s.777-1.036.777-1.553c.259-.518 1.295-.259 1.812-.259.259 0 .259-.518.259-.777 3.625-2.331 7.25-3.625 10.875-5.697-4.143 3.366-9.063 5.179-13.464 8.545-3.884 3.107-7.25 5.955-11.652 8.544-.518.518-1.553 1.036-2.589 1.295-.518 0-1.295 1.036-.518 1.813-.518 0-1.036-.259-1.295 0-.518.518-.518 1.553-1.036 2.071-6.732 6.473-12.687 12.946-18.902 19.937 0 .259-1.295-1.036-1.295 0-.259 1.553 0 4.143-2.071 3.884-1.036-.259-2.589 0-2.33 1.036 0 .518 1.036 0 1.812.259-1.812 3.884-4.143 7.509-6.991 10.616-.518.777-2.589.259-3.884.259-.259 0-.259.259-.259.518.777 1.295 3.884 2.848 1.553 4.401-.518 0-1.036 0-1.295.518 0 .259-.259.777.259 1.036-.259.259-.518.259-.518.518 0 .518.259 1.036 0 1.295s-1.036 0-1.295 0c-.518.259-1.036.518-1.812.518-.777.259-.518 1.035-.777 1.553-.518.518-1.036 1.295-1.554 1.813 1.295.777 1.812-1.036 2.33-1.295s1.294-.777 2.071-.518c-1.036 1.813-1.813 3.884-2.848 5.956-.518.518-1.554.259-1.295 1.294 0 .259.518.518.518.518-2.071 4.92-3.625 9.839-5.437 14.759-.259.518-1.554.259-1.813 1.036 0 .518.777 1.036.518 1.553-1.036 5.697-2.33 10.875-3.625 16.83-1.812 9.58-.777 18.384-3.107 27.964 0 .777-2.071 1.554-3.107 2.589.518.259 1.295.518 2.071.518.777 0 1.295-1.036 2.071-1.294 0 1.294.259 2.589-1.036 3.625-.259.259 1.295.776 1.036 1.036-.777.518-2.071.259-2.33.776-.518.518-.777 1.813 0 2.071.777.518 1.812.259 2.589.777.259.259 0 .777 0 1.295-.518-.518-1.295-.777-2.071-1.036-.259 0-.259.777-.259 1.036.518 1.036 1.295 1.553 2.589 1.553-.259 0-.777-.259-1.036.259-.259 1.036 1.036 1.554 1.036 2.33 1.295 7.768 2.589 15.018 4.143 22.267-.259 0-.777 0-.777.259 1.036 1.812 2.589 3.625 1.036 5.697.777.518 1.554 1.036 1.554 1.812.259 1.036-.518 2.071-.259 3.107.259.777 1.295 0 1.295 0 1.294 1.813 1.812 3.884 2.33 5.955.259.259-.518.518-.776 1.036v.777c-.518 0-.518.518-.777.777 0 .777 1.295.777 1.813.518.518 0 0 .777.259 1.036.518.518 1.295.777 1.554 1.295.777.777-.518 2.071-.777 2.848-.259 1.554 1.553 4.143 3.625 3.107 1.812 3.107 3.107 6.473 5.178 9.58.259.518.259 1.554.518 2.071.52.778 1.297 1.296 1.815 2.331z"/>
	<path d="m598.24 262.95c2.257 1.419 4.401 2.589 6.473 4.402 0 .259-.259 1.036-.259 1.554-3.366-1.036-5.697-3.367-8.545-5.438-8.545-5.696-16.053-10.875-24.598-15.276 9.581 3.884 17.867 9.062 26.929 14.758z"/>
</g></g>
</svg>
