<?xml version="1.0" encoding="UTF-8" standalone="no"?>
<!-- Created with Inkscape (http://www.inkscape.org/) -->

<svg
   width="512pt"
   height="512pt"
   viewBox="0 0 180.62222 180.62222"
   version="1.1"
   id="svg1"
   xml:space="preserve"
   inkscape:version="1.4.4 (dcaf3e7d9e, 2026-05-05)"
   sodipodi:docname="io.github.erick194.doomrpg-re.svg"
   xmlns:inkscape="http://www.inkscape.org/namespaces/inkscape"
   xmlns:sodipodi="http://sodipodi.sourceforge.net/DTD/sodipodi-0.dtd"
   xmlns="http://www.w3.org/2000/svg"
   xmlns:svg="http://www.w3.org/2000/svg"><sodipodi:namedview
     id="namedview1"
     pagecolor="#ffffff"
     bordercolor="#000000"
     borderopacity="0.25"
     inkscape:showpageshadow="2"
     inkscape:pageopacity="0.0"
     inkscape:pagecheckerboard="0"
     inkscape:deskcolor="#d1d1d1"
     inkscape:document-units="mm"
     showgrid="false"
     inkscape:zoom="0.35355339"
     inkscape:cx="968.73629"
     inkscape:cy="-280.01428"
     inkscape:window-width="1920"
     inkscape:window-height="999"
     inkscape:window-x="0"
     inkscape:window-y="0"
     inkscape:window-maximized="1"
     inkscape:current-layer="layer1"><inkscape:grid
       id="grid1"
       units="mm"
       originx="0"
       originy="0"
       spacingx="0.99999998"
       spacingy="1"
       empcolor="#0099e5"
       empopacity="0.30196078"
       color="#0099e5"
       opacity="0.14901961"
       empspacing="5"
       enabled="true"
       visible="false" /></sodipodi:namedview><defs
     id="defs1" /><g
     inkscape:label="Layer 1"
     inkscape:groupmode="layer"
     id="layer1"><g
       id="g6"
       transform="matrix(4.0082708,0,0,4.0082708,14.989413,-123.41726)"><path
         id="rect1"
         style="stroke-width:4.15499;paint-order:stroke fill markers"
         d="m 6.0001506,34.999931 v 0.999939 h -0.999939 v 25.999963 h 0.999939 v 5.000212 H 28.99978 v -5.000212 h 1.000456 V 35.99987 H 28.99978 v -0.999939 z" /><rect
         style="fill:#cccccc;fill-opacity:1;stroke:none;stroke-width:2.83798;paint-order:stroke fill markers"
         id="rect2"
         width="23.000002"
         height="25.999998"
         x="6"
         y="36" /><path
         id="rect4"
         style="fill:#777777;stroke-width:8.02867;paint-order:stroke fill markers"
         d="M 9.0000014,38.999999 H 26.999999 v 12.999998 l -1.000001,10e-7 v 1 H 9.0000014 Z"
         sodipodi:nodetypes="ccccccc" /><path
         id="rect4-2"
         style="fill:#444444;fill-opacity:1;stroke-width:8.02867;paint-order:stroke fill markers"
         d="m 9.0000014,38.999999 v -1 H 25.999998 l -0.04699,13.999998 -17.9530038,10e-7 V 38.999999 Z"
         sodipodi:nodetypes="ccccccc" /><path
         id="rect3"
         style="fill:#ccccff;stroke-width:7.27966;paint-order:stroke fill markers"
         d="M 9.0000002,38.999999 H 26.000002 V 51.999997 H 9.0000002 Z" /><path
         id="rect5-9"
         style="fill:#000000;fill-opacity:1;stroke-width:1.90812;paint-order:stroke fill markers"
         d="m 13.00024,42.00002 v 1.999878 h 0.999939 V 42.00002 Z m 3.999756,0 v 3.999756 h -0.999939 v 1.000456 h 1.999878 V 42.00002 Z m 3.999756,0 v 1.999878 h 1.000456 V 42.00002 Z m -6.999573,6.000151 v 0.999939 h 0.999939 v -0.999939 z m 0.999939,0.999939 v 0.999939 h 3.999756 V 49.00011 Z m 3.999756,0 h 0.999939 v -0.999939 h -0.999939 z" /><path
         id="rect5"
         style="fill:#000000;fill-opacity:1;stroke-width:4.60868;paint-order:stroke fill markers"
         d="m 18,56.999996 h 8 v 2.000002 h -8 z" /><path
         id="rect5-1"
         style="fill:#777777;fill-opacity:1;stroke-width:3.25883;paint-order:stroke fill markers"
         d="m 18.000001,57.999998 h 8 v 1 h -8 z" /><path
         id="rect5-6"
         style="fill:#00bb00;fill-opacity:1;stroke-width:2.30434;paint-order:stroke fill markers"
         d="m 7.9999992,56.999996 h 2.0000018 v 2.000002 H 7.9999992 Z" /><path
         id="rect5-1-5"
         style="fill:#dd0000;fill-opacity:1;stroke-width:1.62942;paint-order:stroke fill markers"
         d="m 7.9999995,57.999998 h 2.0000015 v 1 H 7.9999995 Z" /><path
         id="rect6-4-7"
         style="fill:#555555;fill-opacity:1;stroke-width:2.65872;paint-order:stroke fill markers"
         d="M 7.0000002,62.999996 H 22.000001 v 3.000002 H 18 v -1 h -3.000001 v -1 H 7.0000002 Z"
         sodipodi:nodetypes="ccccccccc" /><path
         id="rect6-4"
         style="fill:#444444;fill-opacity:1;stroke-width:2.65872;paint-order:stroke fill markers"
         d="m 13,62.999996 h 11.000001 v 3.000002 H 20 v -1 h -3.000001 v -1 H 13 Z"
         sodipodi:nodetypes="ccccccccc" /><path
         id="rect6"
         style="fill:#222222;stroke-width:2.65872;paint-order:stroke fill markers"
         d="m 18,62.999996 h 9.000002 v 3.000002 h -3.000001 v -1 H 21 v -1 h -3 z"
         sodipodi:nodetypes="ccccccccc" /><path
         id="rect5-1-7"
         style="fill:#777777;fill-opacity:1;stroke-width:3.25883;paint-order:stroke fill markers"
         d="M 7.0000002,63.999998 H 15 v 1 H 7.0000002 Z" /><path
         id="rect5-1-7-4"
         style="fill:#888888;fill-opacity:1;stroke-width:3.82132;paint-order:stroke fill markers"
         d="M 7.0000002,64.999999 H 18 v 1 H 7.0000002 Z" /></g><path
       d="m 46.810334,137.54522 q 0,5.53544 1.36117,10.16343 1.45191,4.62799 3.90202,7.98555 2.45011,3.26682 5.71695,5.08172 3.26681,1.8149 6.98735,1.8149 3.44831,0 6.53362,-1.72415 3.08534,-1.63341 5.35395,-4.53725 2.35937,-2.90384 3.62981,-6.89661 1.36117,-3.99278 1.36117,-8.53003 0,-3.72054 -0.9982,-6.80587 -0.90744,-3.17607 -2.63161,-5.44469 -1.72414,-2.35937 -4.17425,-3.6298 -2.35937,-1.36117 -5.26321,-1.36117 -1.72414,0 -3.26681,0.54447 -1.54267,0.54447 -2.81311,1.27042 -1.17967,0.72597 -1.90564,1.63342 -0.72596,0.90744 -0.72596,1.54266 0,0.36298 0.18158,0.72596 0.27223,0.36298 0.63523,0.36298 0.36297,0 0.72594,-0.27224 0.45373,-0.36298 0.9982,-0.72596 0.54447,-0.45372 1.17967,-0.8167 0.63524,-0.36298 1.54267,-0.36298 3.44831,0 5.98918,4.35576 2.54085,4.26501 2.54085,12.5228 0,7.35033 -2.08714,11.34311 -2.08711,3.99278 -5.44469,3.99278 -2.08713,0 -4.08351,-1.63341 -1.9964,-1.72415 -3.62981,-4.71874 -1.54267,-3.08532 -2.54084,-7.35034 -0.9982,-4.26501 -0.9982,-9.52821 0,-4.80948 1.27043,-9.61896 1.27041,-4.90023 3.44829,-9.34673 2.26863,-4.53725 5.26321,-8.34854 3.08534,-3.81128 6.62438,-6.62437 2.17788,-1.72416 3.90205,-2.54086 1.72414,-0.90745 2.90381,-1.361175 1.27044,-0.544471 1.90567,-0.907449 0.72594,-0.362981 0.72594,-1.08894 0,-1.08894 -1.17968,-1.08894 -0.54446,0 -2.4501,0.725959 -1.81491,0.635215 -4.44652,1.996389 -2.54084,1.361174 -5.71691,3.448306 -3.17608,2.08713 -6.35215,4.90023 -6.80589,6.07991 -10.43567,14.06546 -3.53904,7.98555 -3.53904,16.78781 z m 66.153056,-21.23431 q 0,2.35937 -0.8167,4.35575 -0.72597,1.90565 -1.72415,3.26682 -0.9982,1.36118 -2.17787,2.17788 -1.08896,0.72596 -1.72417,0.72596 -0.27223,0 -1.27043,-0.36298 -0.99818,-0.45372 -2.35935,-1.17968 -1.3612,-0.72596 -2.8131,-1.72416 -1.451906,-0.99819 -2.540866,-2.17787 -2.72235,-2.72235 -2.72235,-6.80587 0,-4.80949 2.45011,-7.53183 2.45014,-2.72235 5.989176,-2.72235 4.26501,0 6.98736,3.26682 2.72234,3.26681 2.72234,8.71151 z m -0.0907,10.52641 q 6.89662,-2.99458 6.89662,-11.07088 0,-3.08533 -1.1797,-5.62619 -1.08894,-2.54085 -3.17608,-4.35575 -1.99637,-1.8149 -4.90022,-2.8131 -2.81307,-0.99819 -6.35215,-0.99819 -3.62978,0 -6.624376,1.17968 -2.99458,1.17969 -5.17245,3.35757 -2.08714,2.08713 -3.26681,5.08171 -1.1797,2.99459 -1.1797,6.71513 0,4.26501 1.3612,6.98736 1.4519,2.72234 4.71871,4.90022 l 2.35938,1.54267 q 1.08893,0.8167 1.08893,0.8167 0,0.27224 -0.72596,0.54447 l -1.81488,0.72596 q -4.17428,1.72415 -6.62438,5.08172 -2.35938,3.35756 -2.35938,7.98555 0,3.35756 1.17968,6.2614 1.1797,2.81309 3.35757,4.99097 2.26861,2.08713 5.44468,3.26682 3.17608,1.17968 7.168856,1.17968 3.90204,0 7.16885,-1.36117 3.35757,-1.36118 5.71692,-3.72055 2.45013,-2.35936 3.81131,-5.62618 1.36117,-3.35756 1.36117,-7.25959 0,-9.52822 -7.53183,-14.24696 l -2.1779,-1.36117 q -0.90744,-0.54447 -0.90744,-0.90745 0,-0.1815 0.90744,-0.63522 z m -12.06907,7.25959 q 0.36297,0 1.4519,0.45373 1.1797,0.36298 2.54088,1.17968 1.4519,0.72596 2.90384,1.72416 1.4519,0.99819 2.54084,2.08713 3.26681,3.35756 3.26681,9.07449 0,2.45011 -0.8167,4.53725 -0.72594,2.08713 -2.08714,3.62979 -1.36117,1.54267 -3.26681,2.45012 -1.81491,0.8167 -3.90202,0.8167 -2.08713,0 -3.992766,-0.90745 -1.81491,-0.90745 -3.17608,-2.6316 -1.36117,-1.72415 -2.17787,-3.99278 -0.72597,-2.35937 -0.72597,-5.2632 0,-3.08533 0.72597,-5.4447 0.72594,-2.45011 1.81487,-4.17426 1.08894,-1.72416 2.35938,-2.63161 1.36117,-0.90745 2.540866,-0.90745 z m 36.84246,-28.31241 q 0,-1.63341 0.0907,-3.17607 0.0906,-1.54267 0.0906,-2.994586 0,-0.816705 -0.18159,-1.27043 -0.18158,-0.453725 -0.90746,-0.453725 -0.45371,0 -1.99638,1.08894 -1.45193,0.998193 -4.62801,2.177881 -1.72414,0.63521 -2.99457,0.99819 -1.17967,0.27224 -1.17967,1.27043 0,0.54447 0.6352,0.8167 0.63523,0.27224 1.36117,0.63522 0.8167,0.27223 1.45193,0.8167 0.63521,0.54447 0.63521,1.72416 v 46.55214 q 0,1.54267 -0.36297,2.35937 -0.27224,0.81671 -1.54267,1.45192 -0.8167,0.36298 -1.45191,0.45372 -0.63523,0.0907 -1.08896,0.27224 -0.45371,0.0907 -0.72594,0.36298 -0.27224,0.1815 -0.27224,0.8167 0,1.45192 1.72414,1.45192 1.17971,0 3.08534,-0.27223 1.90564,-0.27224 4.53725,-0.27224 2.08714,0 3.62978,0.27224 1.63341,0.27223 2.90384,0.27223 1.45194,0 1.45194,-1.45192 0,-0.63521 -0.27224,-0.8167 -0.18158,-0.27224 -0.63523,-0.36298 -0.4537,-0.1815 -1.08894,-0.36298 -0.6352,-0.1815 -1.36117,-0.63522 -0.6352,-0.36297 -0.8167,-0.8167 -0.0907,-0.54447 -0.0907,-1.27043 v -13.3395 q 0,-1.17969 0.6352,-1.17969 0.81671,0 1.81491,1.72416 l 7.62255,12.70429 q 0.27224,0.54447 0.45374,0.99819 0.27223,0.36298 0.27223,0.81671 0,0.72595 -0.54447,0.90744 -0.54447,0.1815 -1.27043,0.36298 -0.63521,0.0907 -1.17967,0.36298 -0.54447,0.27224 -0.54447,0.9982 0,0.90745 0.36297,1.17968 0.36299,0.27224 1.08893,0.27224 0.9982,0 2.99458,-0.27224 2.08714,-0.27223 5.17248,-0.27223 2.81308,0 4.62798,0.27223 1.8149,0.27224 2.63161,0.27224 1.54267,0 1.54267,-1.36118 0,-1.17968 -0.99821,-1.27043 -0.90743,-0.1815 -1.90563,-0.63521 -1.36118,-0.54447 -2.35938,-1.90564 -0.9982,-1.45192 -2.26861,-3.44831 L 145.45,136.54703 q -0.0907,-0.1815 -0.18159,-0.27224 -0.0907,-0.1815 -0.0907,-0.36298 0,-0.54447 0.63521,-1.08894 l 8.25778,-7.71331 q 1.99641,-1.90565 3.44831,-2.54086 1.45194,-0.72596 2.35938,-0.9982 0.90743,-0.27223 1.27043,-0.36298 0.45371,-0.18149 0.45371,-0.99819 0,-0.8167 -0.36297,-0.99819 -0.27224,-0.27224 -1.17967,-0.27224 -0.72597,0 -2.08714,0.27224 -1.27044,0.27223 -3.35758,0.27223 -2.90384,0 -4.71871,-0.27223 -1.72417,-0.36299 -2.45014,-0.36299 -0.8167,0 -1.08894,0.27224 -0.27223,0.27223 -0.27223,0.99819 0,0.90745 0.63523,1.17969 0.6352,0.27223 1.45191,0.45372 0.8167,0.0907 1.45193,0.36298 0.63521,0.27224 0.63521,1.17969 0,0.99819 -1.08894,1.90564 l -10.98013,10.7079 q -0.18159,0.1815 -0.45374,0.1815 -0.0907,0 -0.0907,-0.0907 z"
       id="text6"
       style="font-size:32.4334px;font-family:'Apple Garamond';-inkscape-font-specification:'Apple Garamond, Normal';letter-spacing:0px;fill:#ff8d00;stroke:#f3511b;stroke-width:2.96109;paint-order:stroke fill markers"
       aria-label="68k" /></g></svg>
